999
dxfrw 0.6.3
  0
SECTION
  2
HEADER
  9
$ACADVER
  1
AC1021
  9
$DWGCODEPAGE
  3
ANSI_1252
  9
$INSBASE
 10
0
 20
0
 30
0
  9
$EXTMIN
 10
0
 20
-1.500000000000578
 30
0
  9
$EXTMAX
 10
827.0042
 20
439.8648403975776
 30
0
  9
$LIMMIN
 10
0
 20
0
  9
$LIMMAX
 10
420
 20
297
  9
$ORTHOMODE
 70
    0
  9
$REGENMODE
 70
    1
  9
$FILLMODE
 70
    1
  9
$QTEXTMODE
 70
    0
  9
$MIRRTEXT
 70
    0
  9
$LTSCALE
 40
1
  9
$ATTMODE
 70
    0
  9
$TEXTSIZE
 40
2.5
  9
$TRACEWID
 40
15.68
  9
$TEXTSTYLE
  7
STANDARD
  9
$CLAYER
  8
transparente
  9
$CELTYPE
  6
BYLAYER
  9
$CECOLOR
 62
  256
  9
$CELTSCALE
 40
1
  9
$DISPSILH
 70
    0
  9
$DIMSCALE
 40
1
  9
$DIMASZ
 40
2.5
  9
$DIMEXO
 40
0.625
  9
$DIMDLI
 40
3.75
  9
$DIMRND
 40
0
  9
$DIMDLE
 40
0
  9
$DIMEXE
 40
1.25
  9
$DIMTP
 40
0
  9
$DIMTM
 40
0
  9
$DIMTXT
 40
2.5
  9
$DIMCEN
 40
2.5
  9
$DIMTSZ
 40
0
  9
$DIMTOL
 70
    0
  9
$DIMLIM
 70
    0
  9
$DIMTIH
 70
    0
  9
$DIMTOH
 70
    0
  9
$DIMSE1
 70
    0
  9
$DIMSE2
 70
    0
  9
$DIMTAD
 70
    1
  9
$DIMZIN
 70
    8
  9
$DIMBLK
  1

  9
$DIMASO
 70
    1
  9
$DIMSHO
 70
    1
  9
$DIMPOST
  1

  9
$DIMAPOST
  1

  9
$DIMALT
 70
    0
  9
$DIMALTD
 70
    3
  9
$DIMALTF
 40
0.03937
  9
$DIMLFAC
 40
1
  9
$DIMTOFL
 70
    1
  9
$DIMTVP
 40
0
  9
$DIMTIX
 70
    0
  9
$DIMSOXD
 70
    0
  9
$DIMSAH
 70
    0
  9
$DIMBLK1
  1

  9
$DIMBLK2
  1

  9
$DIMSTYLE
  2
Standard
  9
$DIMCLRD
 70
    0
  9
$DIMCLRE
 70
    0
  9
$DIMCLRT
 70
    0
  9
$DIMTFAC
 40
1
  9
$DIMGAP
 40
0.625
  9
$DIMJUST
 70
    0
  9
$DIMSD1
 70
    0
  9
$DIMSD2
 70
    0
  9
$DIMTOLJ
 70
    0
  9
$DIMTZIN
 70
    8
  9
$DIMALTZ
 70
    0
  9
$DIMALTTZ
 70
    0
  9
$DIMUPT
 70
    0
  9
$DIMDEC
 70
    2
  9
$DIMTDEC
 70
    2
  9
$DIMALTU
 70
    2
  9
$DIMALTTD
 70
    3
  9
$DIMTXSTY
  7
STANDARD
  9
$DIMAUNIT
 70
    0
  9
$DIMADEC
 70
    0
  9
$DIMALTRND
 40
0
  9
$DIMAZIN
 70
    0
  9
$DIMDSEP
 70
   44
  9
$DIMATFIT
 70
    3
  9
$DIMFRAC
 70
    0
  9
$DIMLDRBLK
  1
STANDARD
  9
$DIMLUNIT
 70
    2
  9
$DIMLWD
 70
   -2
  9
$DIMLWE
 70
   -2
  9
$DIMTMOVE
 70
    0
  9
$DIMFXL
 40
1
  9
$DIMFXLON
 70
    0
  9
$DIMJOGANG
 40
0.7854
  9
$DIMTFILL
 70
    0
  9
$DIMTFILLCLR
 70
    0
  9
$DIMARCSYM
 70
    0
  9
$DIMLTYPE
  6

  9
$DIMLTEX1
  6

  9
$DIMLTEX2
  6

  9
$LUNITS
 70
    2
  9
$LUPREC
 70
    4
  9
$SKETCHINC
 40
1
  9
$FILLETRAD
 40
0
  9
$AUNITS
 70
    0
  9
$AUPREC
 70
    2
  9
$MENU
  1
.
  9
$ELEVATION
 40
0
  9
$PELEVATION
 40
0
  9
$THICKNESS
 40
0
  9
$LIMCHECK
 70
    0
  9
$CHAMFERA
 40
0
  9
$CHAMFERB
 40
0
  9
$CHAMFERC
 40
0
  9
$CHAMFERD
 40
0
  9
$SKPOLY
 70
    0
  9
$USRTIMER
 70
    1
  9
$ANGBASE
 50
0
  9
$ANGDIR
 70
    0
  9
$PDMODE
 70
   34
  9
$PDSIZE
 40
0
  9
$PLINEWID
 40
0
  9
$SPLFRAME
 70
    0
  9
$SPLINETYPE
 70
    2
  9
$SPLINESEGS
 70
    8
  9
$HANDSEED
  5
20000
  9
$SURFTAB1
 70
    6
  9
$SURFTAB2
 70
    6
  9
$SURFTYPE
 70
    6
  9
$SURFU
 70
    6
  9
$SURFV
 70
    6
  9
$UCSBASE
  2

  9
$UCSNAME
  2

  9
$UCSORG
 10
0
 20
0
 30
0
  9
$UCSXDIR
 10
1
 20
0
 30
0
  9
$UCSYDIR
 10
0
 20
1
 30
0
  9
$UCSORTHOREF
  2

  9
$UCSORTHOVIEW
 70
    0
  9
$UCSORGTOP
 10
0
 20
0
 30
0
  9
$UCSORGBOTTOM
 10
0
 20
0
 30
0
  9
$UCSORGLEFT
 10
0
 20
0
 30
0
  9
$UCSORGRIGHT
 10
0
 20
0
 30
0
  9
$UCSORGFRONT
 10
0
 20
0
 30
0
  9
$UCSORGBACK
 10
0
 20
0
 30
0
  9
$PUCSBASE
  2

  9
$PUCSNAME
  2

  9
$PUCSORG
 10
0
 20
0
 30
0
  9
$PUCSXDIR
 10
1
 20
0
 30
0
  9
$PUCSYDIR
 10
0
 20
1
 30
0
  9
$PUCSORTHOREF
  2

  9
$PUCSORTHOVIEW
 70
    0
  9
$PUCSORGTOP
 10
0
 20
0
 30
0
  9
$PUCSORGBOTTOM
 10
0
 20
0
 30
0
  9
$PUCSORGLEFT
 10
0
 20
0
 30
0
  9
$PUCSORGRIGHT
 10
0
 20
0
 30
0
  9
$PUCSORGFRONT
 10
0
 20
0
 30
0
  9
$PUCSORGBACK
 10
0
 20
0
 30
0
  9
$USERI1
 70
    0
  9
$USERI2
 70
    0
  9
$USERI3
 70
    0
  9
$USERI4
 70
    0
  9
$USERI5
 70
    0
  9
$USERR1
 40
0
  9
$USERR2
 40
0
  9
$USERR3
 40
0
  9
$USERR4
 40
0
  9
$USERR5
 40
0
  9
$WORLDVIEW
 70
    1
  9
$SHADEDGE
 70
    3
  9
$SHADEDIF
 70
   70
  9
$TILEMODE
 70
    1
  9
$MAXACTVP
 70
   64
  9
$PINSBASE
 10
0
 20
0
 30
0
  9
$PLIMCHECK
 70
    0
  9
$PEXTMIN
 10
0
 20
0
 30
0
  9
$PEXTMAX
 10
0
 20
0
 30
0
  9
$GRIDMODE
 70
    1
  9
$SNAPSTYLE
 70
    0
  9
$PLIMMIN
 10
0
 20
0
  9
$PLIMMAX
 10
210
 20
297
  9
$UNITMODE
 70
    0
  9
$VISRETAIN
 70
    1
  9
$PLINEGEN
 70
    0
  9
$PSLTSCALE
 70
    1
  9
$TREEDEPTH
 70
 3020
  9
$CMLSTYLE
  2
Standard
  9
$CMLJUST
 70
    0
  9
$CMLSCALE
 40
20
  9
$PROXYGRAPHICS
 70
    1
  9
$MEASUREMENT
 70
    1
  9
$CELWEIGHT
370
   -1
  9
$ENDCAPS
280
    0
  9
$JOINSTYLE
280
    0
  9
$LWDISPLAY
290
    0
  9
$INSUNITS
 70
    4
  9
$HYPERLINKBASE
  1

  9
$STYLESHEET
  1

  9
$XEDIT
290
    1
  9
$CEPSNTYPE
380
    0
  9
$PSTYLEMODE
290
    1
  9
$EXTNAMES
290
    1
  9
$PSVPSCALE
 40
1
  9
$OLESTARTUP
290
    0
  9
$SORTENTS
280
  127
  9
$INDEXCTL
280
    0
  9
$HIDETEXT
280
    1
  9
$XCLIPFRAME
290
    0
  9
$HALOGAP
280
    0
  9
$OBSCOLOR
 70
  257
  9
$OBSLTYPE
280
    0
  9
$INTERSECTIONDISPLAY
280
    0
  9
$INTERSECTIONCOLOR
 70
  257
  9
$DIMASSOC
280
    1
  9
$PROJECTNAME
  1

  9
$CAMERADISPLAY
290
    0
  9
$LENSLENGTH
 40
50
  9
$CAMERAHEIGHT
 40
0
  9
$STEPSPERSEC
 40
2
  9
$STEPSIZE
 40
50
  9
$3DDWFPREC
 40
2
  9
$PSOLWIDTH
 40
5
  9
$PSOLHEIGHT
 40
80
  9
$LOFTANG1
 40
1.570796326794897
  9
$LOFTANG2
 40
1.570796326794897
  9
$LOFTMAG1
 40
0
  9
$LOFTMAG2
 40
0
  9
$LOFTPARAM
 70
    7
  9
$LOFTNORMALS
280
    1
  9
$LATITUDE
 40
1
  9
$LONGITUDE
 40
1
  9
$NORTHDIRECTION
 40
0
  9
$TIMEZONE
 70
-8000
  9
$LIGHTGLYPHDISPLAY
280
    1
  9
$TILEMODELIGHTSYNCH
280
    1
  9
$SOLIDHIST
280
    1
  9
$SHOWHIST
280
    1
  9
$DWFFRAME
280
    2
  9
$DGNFRAME
280
    0
  9
$REALWORLDSCALE
290
    1
  9
$INTERFERECOLOR
 62
    1
  9
$CSHADOW
280
    0
  9
$SHADOWPLANELOCATION
 40
0
  0
ENDSEC
  0
SECTION
  2
CLASSES
  0
ENDSEC
  0
SECTION
  2
TABLES
  0
TABLE
  2
VPORT
  5
8
330
0
100
AcDbSymbolTable
 70
    1
  0
VPORT
  5
31
330
2
100
AcDbSymbolTableRecord
100
AcDbViewportTableRecord
  2
*ACTIVE
 70
    0
 10
0
 20
0
 11
1
 21
1
 12
349.7377965676791
 22
286.8119999651547
 13
0
 23
0
 14
10
 24
10
 15
10
 25
10
 16
0
 26
0
 36
1
 17
0
 27
0
 37
0
 40
469.9179660446036
 41
1.809195402298851
 42
50
 43
0
 44
0
 50
0
 51
0
 71
    0
 72
  100
 73
    1
 74
    3
 75
    0
 76
    1
 77
    0
 78
    0
281
    0
 65
    1
110
0
120
0
130
0
111
1
121
0
131
0
112
0
122
1
132
0
 79
    0
146
0
348
10020
 60
    7
 61
    5
292
1
282
    1
141
0
142
0
 63
  250
421
3358443
  0
ENDTAB
  0
TABLE
  2
LTYPE
  5
5
330
0
100
AcDbSymbolTable
 70
    4
  0
LTYPE
  5
14
330
5
100
AcDbSymbolTableRecord
100
AcDbLinetypeTableRecord
  2
ByBlock
 70
    0
  3

 72
   65
 73
    0
 40
0
  0
LTYPE
  5
15
330
5
100
AcDbSymbolTableRecord
100
AcDbLinetypeTableRecord
  2
ByLayer
 70
    0
  3

 72
   65
 73
    0
 40
0
  0
LTYPE
  5
16
330
5
100
AcDbSymbolTableRecord
100
AcDbLinetypeTableRecord
  2
Continuous
 70
    0
  3
Solid line
 72
   65
 73
    0
 40
0
  0
LTYPE
  5
32
330
5
100
AcDbSymbolTableRecord
100
AcDbLinetypeTableRecord
  2
DOT
 70
    0
  3
Dot . . . . . . . . . . . . . . . . . . . . . .
 72
   65
 73
    2
 40
6.35
 49
0
 74
    0
 49
-6.35
 74
    0
  0
LTYPE
  5
33
330
5
100
AcDbSymbolTableRecord
100
AcDbLinetypeTableRecord
  2
DOTTINY
 70
    0
  3
Dot (.15x) .....................................
 72
   65
 73
    2
 40
0.9525
 49
0
 74
    0
 49
-0.9525
 74
    0
  0
LTYPE
  5
34
330
5
100
AcDbSymbolTableRecord
100
AcDbLinetypeTableRecord
  2
DOT2
 70
    0
  3
Dot (.5x) .....................................
 72
   65
 73
    2
 40
3.175
 49
0
 74
    0
 49
-3.175
 74
    0
  0
LTYPE
  5
35
330
5
100
AcDbSymbolTableRecord
100
AcDbLinetypeTableRecord
  2
DOTX2
 70
    0
  3
Dot (2x) .  .  .  .  .  .  .  .  .  .  .  .  .
 72
   65
 73
    2
 40
12.7
 49
0
 74
    0
 49
-12.7
 74
    0
  0
LTYPE
  5
36
330
5
100
AcDbSymbolTableRecord
100
AcDbLinetypeTableRecord
  2
DASHED
 70
    0
  3
Dashed _ _ _ _ _ _ _ _ _ _ _ _ _ _ _ _ _
 72
   65
 73
    2
 40
19.05
 49
12.7
 74
    0
 49
-6.35
 74
    0
  0
LTYPE
  5
37
330
5
100
AcDbSymbolTableRecord
100
AcDbLinetypeTableRecord
  2
DASHEDTINY
 70
    0
  3
Dashed (.15x) _ _ _ _ _ _ _ _ _ _ _ _ _ _ _ _ _
 72
   65
 73
    2
 40
2.8575
 49
1.905
 74
    0
 49
-0.9525
 74
    0
  0
LTYPE
  5
38
330
5
100
AcDbSymbolTableRecord
100
AcDbLinetypeTableRecord
  2
DASHED2
 70
    0
  3
Dashed (.5x) _ _ _ _ _ _ _ _ _ _ _ _ _ _ _ _ _
 72
   65
 73
    2
 40
9.524999999999999
 49
6.35
 74
    0
 49
-3.175
 74
    0
  0
LTYPE
  5
39
330
5
100
AcDbSymbolTableRecord
100
AcDbLinetypeTableRecord
  2
DASHEDX2
 70
    0
  3
Dashed (2x) ____  ____  ____  ____  ____  ___
 72
   65
 73
    2
 40
38.09999999999999
 49
25.4
 74
    0
 49
-12.7
 74
    0
  0
LTYPE
  5
3A
330
5
100
AcDbSymbolTableRecord
100
AcDbLinetypeTableRecord
  2
DASHDOT
 70
    0
  3
Dash dot __ . __ . __ . __ . __ . __ . __ . __
 72
   65
 73
    4
 40
25.4
 49
12.7
 74
    0
 49
-6.35
 74
    0
 49
0
 74
    0
 49
-6.35
 74
    0
  0
LTYPE
  5
3B
330
5
100
AcDbSymbolTableRecord
100
AcDbLinetypeTableRecord
  2
DASHDOTTINY
 70
    0
  3
Dash dot (.15x) _._._._._._._._._._._._._._._.
 72
   65
 73
    4
 40
3.81
 49
1.905
 74
    0
 49
-0.9525
 74
    0
 49
0
 74
    0
 49
-0.9525
 74
    0
  0
LTYPE
  5
3C
330
5
100
AcDbSymbolTableRecord
100
AcDbLinetypeTableRecord
  2
DASHDOT2
 70
    0
  3
Dash dot (.5x) _._._._._._._._._._._._._._._.
 72
   65
 73
    4
 40
12.7
 49
6.35
 74
    0
 49
-3.175
 74
    0
 49
0
 74
    0
 49
-3.175
 74
    0
  0
LTYPE
  5
3D
330
5
100
AcDbSymbolTableRecord
100
AcDbLinetypeTableRecord
  2
DASHDOTX2
 70
    0
  3
Dash dot (2x) ____  .  ____  .  ____  .  ___
 72
   65
 73
    4
 40
50.8
 49
25.4
 74
    0
 49
-12.7
 74
    0
 49
0
 74
    0
 49
-12.7
 74
    0
  0
LTYPE
  5
3E
330
5
100
AcDbSymbolTableRecord
100
AcDbLinetypeTableRecord
  2
DIVIDE
 70
    0
  3
Divide ____ . . ____ . . ____ . . ____ . . ____
 72
   65
 73
    6
 40
31.75
 49
12.7
 74
    0
 49
-6.35
 74
    0
 49
0
 74
    0
 49
-6.35
 74
    0
 49
0
 74
    0
 49
-6.35
 74
    0
  0
LTYPE
  5
3F
330
5
100
AcDbSymbolTableRecord
100
AcDbLinetypeTableRecord
  2
DIVIDETINY
 70
    0
  3
Divide (.15x) __..__..__..__..__..__..__..__.._
 72
   65
 73
    6
 40
4.7625
 49
1.905
 74
    0
 49
-0.9525
 74
    0
 49
0
 74
    0
 49
-0.9525
 74
    0
 49
0
 74
    0
 49
-0.9525
 74
    0
  0
LTYPE
  5
40
330
5
100
AcDbSymbolTableRecord
100
AcDbLinetypeTableRecord
  2
DIVIDE2
 70
    0
  3
Divide (.5x) __..__..__..__..__..__..__..__.._
 72
   65
 73
    6
 40
15.875
 49
6.35
 74
    0
 49
-3.175
 74
    0
 49
0
 74
    0
 49
-3.175
 74
    0
 49
0
 74
    0
 49
-3.175
 74
    0
  0
LTYPE
  5
41
330
5
100
AcDbSymbolTableRecord
100
AcDbLinetypeTableRecord
  2
DIVIDEX2
 70
    0
  3
Divide (2x) ________  .  .  ________  .  .  _
 72
   65
 73
    6
 40
63.5
 49
25.4
 74
    0
 49
-12.7
 74
    0
 49
0
 74
    0
 49
-12.7
 74
    0
 49
0
 74
    0
 49
-12.7
 74
    0
  0
LTYPE
  5
42
330
5
100
AcDbSymbolTableRecord
100
AcDbLinetypeTableRecord
  2
BORDER
 70
    0
  3
Border __ __ . __ __ . __ __ . __ __ . __ __ .
 72
   65
 73
    6
 40
44.45
 49
12.7
 74
    0
 49
-6.35
 74
    0
 49
12.7
 74
    0
 49
-6.35
 74
    0
 49
0
 74
    0
 49
-6.35
 74
    0
  0
LTYPE
  5
43
330
5
100
AcDbSymbolTableRecord
100
AcDbLinetypeTableRecord
  2
BORDERTINY
 70
    0
  3
Border (.15x) __.__.__.__.__.__.__.__.__.__.__.
 72
   65
 73
    6
 40
6.6675
 49
1.905
 74
    0
 49
-0.9525
 74
    0
 49
1.905
 74
    0
 49
-0.9525
 74
    0
 49
0
 74
    0
 49
-0.9525
 74
    0
  0
LTYPE
  5
44
330
5
100
AcDbSymbolTableRecord
100
AcDbLinetypeTableRecord
  2
BORDER2
 70
    0
  3
Border (.5x) __.__.__.__.__.__.__.__.__.__.__.
 72
   65
 73
    6
 40
22.225
 49
6.35
 74
    0
 49
-3.175
 74
    0
 49
6.35
 74
    0
 49
-3.175
 74
    0
 49
0
 74
    0
 49
-3.175
 74
    0
  0
LTYPE
  5
45
330
5
100
AcDbSymbolTableRecord
100
AcDbLinetypeTableRecord
  2
BORDERX2
 70
    0
  3
Border (2x) ____  ____  .  ____  ____  .  ___
 72
   65
 73
    6
 40
88.89999999999999
 49
25.4
 74
    0
 49
-12.7
 74
    0
 49
25.4
 74
    0
 49
-12.7
 74
    0
 49
0
 74
    0
 49
-12.7
 74
    0
  0
LTYPE
  5
46
330
5
100
AcDbSymbolTableRecord
100
AcDbLinetypeTableRecord
  2
CENTER
 70
    0
  3
Center ____ _ ____ _ ____ _ ____ _ ____ _ ____
 72
   65
 73
    4
 40
50.8
 49
31.75
 74
    0
 49
-6.35
 74
    0
 49
6.35
 74
    0
 49
-6.35
 74
    0
  0
LTYPE
  5
47
330
5
100
AcDbSymbolTableRecord
100
AcDbLinetypeTableRecord
  2
CENTERTINY
 70
    0
  3
Center (.15x) ___ _ ___ _ ___ _ ___ _ ___ _ ___
 72
   65
 73
    4
 40
7.619999999999999
 49
4.7625
 74
    0
 49
-0.9525
 74
    0
 49
0.9525
 74
    0
 49
-0.9525
 74
    0
  0
LTYPE
  5
48
330
5
100
AcDbSymbolTableRecord
100
AcDbLinetypeTableRecord
  2
CENTER2
 70
    0
  3
Center (.5x) ___ _ ___ _ ___ _ ___ _ ___ _ ___
 72
   65
 73
    4
 40
28.575
 49
19.05
 74
    0
 49
-3.175
 74
    0
 49
3.175
 74
    0
 49
-3.175
 74
    0
  0
LTYPE
  5
49
330
5
100
AcDbSymbolTableRecord
100
AcDbLinetypeTableRecord
  2
CENTERX2
 70
    0
  3
Center (2x) ________  __  ________  __  _____
 72
   65
 73
    4
 40
101.6
 49
63.5
 74
    0
 49
-12.7
 74
    0
 49
12.7
 74
    0
 49
-12.7
 74
    0
  0
ENDTAB
  0
TABLE
  2
LAYER
  5
2
330
0
100
AcDbSymbolTable
 70
    1
  0
LAYER
  5
10
330
2
100
AcDbSymbolTableRecord
100
AcDbLayerTableRecord
  2
0
 70
    0
 62
    7
  6
CONTINUOUS
370
    0
390
F
  0
LAYER
  5
4A
330
2
100
AcDbSymbolTableRecord
100
AcDbLayerTableRecord
  2
Back_outsideCutPath
 70
    0
 62
    7
  6
CONTINUOUS
370
   -3
390
F
  0
LAYER
  5
4B
330
2
100
AcDbSymbolTableRecord
100
AcDbLayerTableRecord
  2
Bottom_outsideCutPath
 70
    0
 62
    7
  6
CONTINUOUS
370
   -3
390
F
  0
LAYER
  5
4C
330
2
100
AcDbSymbolTableRecord
100
AcDbLayerTableRecord
  2
Front_outsideCutPath
 70
    0
 62
    7
  6
CONTINUOUS
370
   -3
390
F
  0
LAYER
  5
4D
330
2
100
AcDbSymbolTableRecord
100
AcDbLayerTableRecord
  2
Left_outsideCutPath
 70
    0
 62
    7
  6
CONTINUOUS
370
   -3
390
F
  0
LAYER
  5
4E
330
2
100
AcDbSymbolTableRecord
100
AcDbLayerTableRecord
  2
Right_outsideCutPath
 70
    0
 62
    7
  6
CONTINUOUS
370
   -3
390
F
  0
LAYER
  5
4F
330
2
100
AcDbSymbolTableRecord
100
AcDbLayerTableRecord
  2
rowDivider-0_outsideCutPath
 70
    0
 62
    7
  6
CONTINUOUS
370
   -3
390
F
  0
LAYER
  5
50
330
2
100
AcDbSymbolTableRecord
100
AcDbLayerTableRecord
  2
rowDivider-1_outsideCutPath
 70
    0
 62
    7
  6
CONTINUOUS
370
   -3
390
F
  0
LAYER
  5
51
330
2
100
AcDbSymbolTableRecord
100
AcDbLayerTableRecord
  2
rowDivider-2_outsideCutPath
 70
    0
 62
    7
  6
CONTINUOUS
370
   -3
390
F
  0
LAYER
  5
52
330
2
100
AcDbSymbolTableRecord
100
AcDbLayerTableRecord
  2
rowDivider-3_outsideCutPath
 70
    0
 62
    7
  6
CONTINUOUS
370
   -3
390
F
  0
LAYER
  5
53
330
2
100
AcDbSymbolTableRecord
100
AcDbLayerTableRecord
  2
rowDivider-4_outsideCutPath
 70
    0
 62
    7
  6
CONTINUOUS
370
   -3
390
F
  0
LAYER
  5
54
330
2
100
AcDbSymbolTableRecord
100
AcDbLayerTableRecord
  2
transparente
 70
    0
 62
    5
  6
CONTINUOUS
370
    0
390
F
  0
ENDTAB
  0
TABLE
  2
STYLE
  5
3
330
0
100
AcDbSymbolTable
 70
    3
  0
STYLE
  5
55
330
2
100
AcDbSymbolTableRecord
100
AcDbTextStyleTableRecord
  2
Standard
 70
    0
 40
0
 41
1
 50
0
 71
    0
 42
1
  3
txt
  4

  0
ENDTAB
  0
TABLE
  2
VIEW
  5
6
330
0
100
AcDbSymbolTable
 70
    0
  0
ENDTAB
  0
TABLE
  2
UCS
  5
7
330
0
100
AcDbSymbolTable
 70
    0
  0
ENDTAB
  0
TABLE
  2
APPID
  5
9
330
0
100
AcDbSymbolTable
 70
    1
  0
APPID
  5
12
330
9
100
AcDbSymbolTableRecord
100
AcDbRegAppTableRecord
  2
ACAD
 70
    0
  0
APPID
  5
56
330
9
100
AcDbSymbolTableRecord
100
AcDbRegAppTableRecord
  2
LibreCad
 70
    0
  0
ENDTAB
  0
TABLE
  2
DIMSTYLE
  5
A
330
0
100
AcDbSymbolTable
 70
    1
100
AcDbDimStyleTable
 71
    1
  0
DIMSTYLE
105
57
330
A
100
AcDbSymbolTableRecord
100
AcDbDimStyleTableRecord
  2
Standard
 70
    0
 40
1
 41
2.5
 42
0.625
 43
0.38
 44
1.25
 45
0
 46
0
 47
0
 48
0
 49
1
140
2.5
141
0.09
142
0
143
25.4
144
1
145
0
146
1
147
0.625
148
0
 71
    0
 72
    0
 73
    0
 74
    1
 75
    0
 76
    0
 77
    0
 78
    8
 79
    0
170
    0
171
    2
172
    0
173
    0
174
    0
175
    0
176
    0
177
    0
178
    0
179
    0
271
    2
272
    4
273
    2
274
    2
275
    0
276
    0
277
    2
278
   44
279
    0
280
    0
281
    0
282
    0
283
    1
284
    0
285
    0
286
    0
288
    0
289
    3
340
STANDARD
341

371
   -2
372
   -2
  0
ENDTAB
  0
TABLE
  2
BLOCK_RECORD
  5
1
330
0
100
AcDbSymbolTable
 70
    2
  0
BLOCK_RECORD
  5
1F
330
1
100
AcDbSymbolTableRecord
100
AcDbBlockTableRecord
  2
*Model_Space
 70
    0
280
    1
281
    0
  0
BLOCK_RECORD
  5
1E
330
1
100
AcDbSymbolTableRecord
100
AcDbBlockTableRecord
  2
*Paper_Space
 70
    0
280
    1
281
    0
  0
ENDTAB
  0
ENDSEC
  0
SECTION
  2
BLOCKS
  0
BLOCK
  5
20
330
1F
100
AcDbEntity
  8
0
100
AcDbBlockBegin
  2
*Model_Space
 70
    0
 10
0
 20
0
 30
0
  3
*Model_Space
  1

  0
ENDBLK
  5
21
330
1F
100
AcDbEntity
  8
0
100
AcDbBlockEnd
  0
BLOCK
  5
1C
330
1B
100
AcDbEntity
  8
0
100
AcDbBlockBegin
  2
*Paper_Space
 70
    0
 10
0
 20
0
 30
0
  3
*Paper_Space
  1

  0
ENDBLK
  5
1D
330
1F
100
AcDbEntity
  8
0
100
AcDbBlockEnd
  0
ENDSEC
  0
SECTION
  2
ENTITIES
  0
LINE
  5
58
100
AcDbEntity
  8
Bottom_outsideCutPath
  6
ByLayer
 62
  256
370
   -1
100
AcDbLine
 10
806.50386
 20
3
 11
806.50386
 21
5.99974
  0
LINE
  5
59
100
AcDbEntity
  8
Bottom_outsideCutPath
  6
ByLayer
 62
  256
370
   -1
100
AcDbLine
 10
806.50386
 20
5.99974
 11
827.0042
 21
5.99974
  0
LINE
  5
5A
100
AcDbEntity
  8
Bottom_outsideCutPath
  6
ByLayer
 62
  256
370
   -1
100
AcDbLine
 10
827.0042
 20
5.99974
 11
827.0042
 21
25.9997
  0
LINE
  5
5B
100
AcDbEntity
  8
Bottom_outsideCutPath
  6
ByLayer
 62
  256
370
   -1
100
AcDbLine
 10
827.0042
 20
25.9997
 11
824.00192
 21
25.9997
  0
LINE
  5
5C
100
AcDbEntity
  8
Bottom_outsideCutPath
  6
ByLayer
 62
  256
370
   -1
100
AcDbLine
 10
824.00192
 20
25.9997
 11
824.00192
 21
37.00044
  0
LINE
  5
5D
100
AcDbEntity
  8
Bottom_outsideCutPath
  6
ByLayer
 62
  256
370
   -1
100
AcDbLine
 10
824.00192
 20
37.00044
 11
827.0042
 21
37.00044
  0
LINE
  5
5E
100
AcDbEntity
  8
Bottom_outsideCutPath
  6
ByLayer
 62
  256
370
   -1
100
AcDbLine
 10
827.0042
 20
37.00044
 11
827.0042
 21
48.00118
  0
LINE
  5
5F
100
AcDbEntity
  8
Bottom_outsideCutPath
  6
ByLayer
 62
  256
370
   -1
100
AcDbLine
 10
827.0042
 20
48.00118
 11
824.00192
 21
48.00118
  0
LINE
  5
60
100
AcDbEntity
  8
Bottom_outsideCutPath
  6
ByLayer
 62
  256
370
   -1
100
AcDbLine
 10
824.00192
 20
48.00118
 11
824.00192
 21
58.99938
  0
LINE
  5
61
100
AcDbEntity
  8
Bottom_outsideCutPath
  6
ByLayer
 62
  256
370
   -1
100
AcDbLine
 10
824.00192
 20
58.99938
 11
827.0042
 21
58.99938
  0
LINE
  5
62
100
AcDbEntity
  8
Bottom_outsideCutPath
  6
ByLayer
 62
  256
370
   -1
100
AcDbLine
 10
827.0042
 20
58.99938
 11
827.0042
 21
70.00012
  0
LINE
  5
63
100
AcDbEntity
  8
Bottom_outsideCutPath
  6
ByLayer
 62
  256
370
   -1
100
AcDbLine
 10
827.0042
 20
70.00012
 11
824.00192
 21
70.00012
  0
LINE
  5
64
100
AcDbEntity
  8
Bottom_outsideCutPath
  6
ByLayer
 62
  256
370
   -1
100
AcDbLine
 10
824.00192
 20
70.00012
 11
824.00192
 21
81.00086
  0
LINE
  5
65
100
AcDbEntity
  8
Bottom_outsideCutPath
  6
ByLayer
 62
  256
370
   -1
100
AcDbLine
 10
824.00192
 20
81.00086
 11
827.0042
 21
81.00086
  0
LINE
  5
66
100
AcDbEntity
  8
Bottom_outsideCutPath
  6
ByLayer
 62
  256
370
   -1
100
AcDbLine
 10
827.0042
 20
81.00086
 11
827.0042
 21
91.99906
  0
LINE
  5
67
100
AcDbEntity
  8
Bottom_outsideCutPath
  6
ByLayer
 62
  256
370
   -1
100
AcDbLine
 10
827.0042
 20
91.99906
 11
824.00192
 21
91.99906
  0
LINE
  5
68
100
AcDbEntity
  8
Bottom_outsideCutPath
  6
ByLayer
 62
  256
370
   -1
100
AcDbLine
 10
824.00192
 20
91.99906
 11
824.00192
 21
102.9998
  0
LINE
  5
69
100
AcDbEntity
  8
Bottom_outsideCutPath
  6
ByLayer
 62
  256
370
   -1
100
AcDbLine
 10
824.00192
 20
102.9998
 11
827.0042
 21
102.9998
  0
LINE
  5
6A
100
AcDbEntity
  8
Bottom_outsideCutPath
  6
ByLayer
 62
  256
370
   -1
100
AcDbLine
 10
827.0042
 20
102.9998
 11
827.0042
 21
114.00054
  0
LINE
  5
6B
100
AcDbEntity
  8
Bottom_outsideCutPath
  6
ByLayer
 62
  256
370
   -1
100
AcDbLine
 10
827.0042
 20
114.00054
 11
824.00192
 21
114.00054
  0
LINE
  5
6C
100
AcDbEntity
  8
Bottom_outsideCutPath
  6
ByLayer
 62
  256
370
   -1
100
AcDbLine
 10
824.00192
 20
114.00054
 11
824.00192
 21
125.00128
  0
LINE
  5
6D
100
AcDbEntity
  8
Bottom_outsideCutPath
  6
ByLayer
 62
  256
370
   -1
100
AcDbLine
 10
824.00192
 20
125.00128
 11
827.0042
 21
125.00128
  0
LINE
  5
6E
100
AcDbEntity
  8
Bottom_outsideCutPath
  6
ByLayer
 62
  256
370
   -1
100
AcDbLine
 10
827.0042
 20
125.00128
 11
827.0042
 21
135.99948
  0
LINE
  5
6F
100
AcDbEntity
  8
Bottom_outsideCutPath
  6
ByLayer
 62
  256
370
   -1
100
AcDbLine
 10
827.0042
 20
135.99948
 11
824.00192
 21
135.99948
  0
LINE
  5
70
100
AcDbEntity
  8
Bottom_outsideCutPath
  6
ByLayer
 62
  256
370
   -1
100
AcDbLine
 10
824.00192
 20
135.99948
 11
824.00192
 21
147.00022
  0
LINE
  5
71
100
AcDbEntity
  8
Bottom_outsideCutPath
  6
ByLayer
 62
  256
370
   -1
100
AcDbLine
 10
824.00192
 20
147.00022
 11
827.0042
 21
147.00022
  0
LINE
  5
72
100
AcDbEntity
  8
Bottom_outsideCutPath
  6
ByLayer
 62
  256
370
   -1
100
AcDbLine
 10
827.0042
 20
147.00022
 11
827.0042
 21
158.00096
  0
LINE
  5
73
100
AcDbEntity
  8
Bottom_outsideCutPath
  6
ByLayer
 62
  256
370
   -1
100
AcDbLine
 10
827.0042
 20
158.00096
 11
824.00192
 21
158.00096
  0
LINE
  5
74
100
AcDbEntity
  8
Bottom_outsideCutPath
  6
ByLayer
 62
  256
370
   -1
100
AcDbLine
 10
824.00192
 20
158.00096
 11
824.00192
 21
168.99916
  0
LINE
  5
75
100
AcDbEntity
  8
Bottom_outsideCutPath
  6
ByLayer
 62
  256
370
   -1
100
AcDbLine
 10
824.00192
 20
168.99916
 11
827.0042
 21
168.99916
  0
LINE
  5
76
100
AcDbEntity
  8
Bottom_outsideCutPath
  6
ByLayer
 62
  256
370
   -1
100
AcDbLine
 10
827.0042
 20
168.99916
 11
827.0042
 21
179.9999
  0
LINE
  5
77
100
AcDbEntity
  8
Bottom_outsideCutPath
  6
ByLayer
 62
  256
370
   -1
100
AcDbLine
 10
827.0042
 20
179.9999
 11
824.00192
 21
179.9999
  0
LINE
  5
78
100
AcDbEntity
  8
Bottom_outsideCutPath
  6
ByLayer
 62
  256
370
   -1
100
AcDbLine
 10
824.00192
 20
179.9999
 11
824.00192
 21
191.00064
  0
LINE
  5
79
100
AcDbEntity
  8
Bottom_outsideCutPath
  6
ByLayer
 62
  256
370
   -1
100
AcDbLine
 10
824.00192
 20
191.00064
 11
827.0042
 21
191.00064
  0
LINE
  5
7A
100
AcDbEntity
  8
Bottom_outsideCutPath
  6
ByLayer
 62
  256
370
   -1
100
AcDbLine
 10
827.0042
 20
191.00064
 11
827.0042
 21
201.99884
  0
LINE
  5
7B
100
AcDbEntity
  8
Bottom_outsideCutPath
  6
ByLayer
 62
  256
370
   -1
100
AcDbLine
 10
827.0042
 20
201.99884
 11
824.00192
 21
201.99884
  0
LINE
  5
7C
100
AcDbEntity
  8
Bottom_outsideCutPath
  6
ByLayer
 62
  256
370
   -1
100
AcDbLine
 10
824.00192
 20
201.99884
 11
824.00192
 21
212.99958
  0
LINE
  5
7D
100
AcDbEntity
  8
Bottom_outsideCutPath
  6
ByLayer
 62
  256
370
   -1
100
AcDbLine
 10
824.00192
 20
212.99958
 11
827.0042
 21
212.99958
  0
LINE
  5
7E
100
AcDbEntity
  8
Bottom_outsideCutPath
  6
ByLayer
 62
  256
370
   -1
100
AcDbLine
 10
827.0042
 20
212.99958
 11
827.0042
 21
224.00032
  0
LINE
  5
7F
100
AcDbEntity
  8
Bottom_outsideCutPath
  6
ByLayer
 62
  256
370
   -1
100
AcDbLine
 10
827.0042
 20
224.00032
 11
824.00192
 21
224.00032
  0
LINE
  5
80
100
AcDbEntity
  8
Bottom_outsideCutPath
  6
ByLayer
 62
  256
370
   -1
100
AcDbLine
 10
824.00192
 20
224.00032
 11
824.00192
 21
235.00106
  0
LINE
  5
81
100
AcDbEntity
  8
Bottom_outsideCutPath
  6
ByLayer
 62
  256
370
   -1
100
AcDbLine
 10
824.00192
 20
235.00106
 11
827.0042
 21
235.00106
  0
LINE
  5
82
100
AcDbEntity
  8
Bottom_outsideCutPath
  6
ByLayer
 62
  256
370
   -1
100
AcDbLine
 10
827.0042
 20
235.00106
 11
827.0042
 21
245.99926
  0
LINE
  5
83
100
AcDbEntity
  8
Bottom_outsideCutPath
  6
ByLayer
 62
  256
370
   -1
100
AcDbLine
 10
827.0042
 20
245.99926
 11
824.00192
 21
245.99926
  0
LINE
  5
84
100
AcDbEntity
  8
Bottom_outsideCutPath
  6
ByLayer
 62
  256
370
   -1
100
AcDbLine
 10
824.00192
 20
245.99926
 11
824.00192
 21
257
  0
LINE
  5
85
100
AcDbEntity
  8
Bottom_outsideCutPath
  6
ByLayer
 62
  256
370
   -1
100
AcDbLine
 10
824.00192
 20
257
 11
827.0042
 21
257
  0
LINE
  5
86
100
AcDbEntity
  8
Bottom_outsideCutPath
  6
ByLayer
 62
  256
370
   -1
100
AcDbLine
 10
827.0042
 20
257
 11
827.0042
 21
268.00074
  0
LINE
  5
87
100
AcDbEntity
  8
Bottom_outsideCutPath
  6
ByLayer
 62
  256
370
   -1
100
AcDbLine
 10
827.0042
 20
268.00074
 11
824.00192
 21
268.00074
  0
LINE
  5
88
100
AcDbEntity
  8
Bottom_outsideCutPath
  6
ByLayer
 62
  256
370
   -1
100
AcDbLine
 10
824.00192
 20
268.00074
 11
824.00192
 21
278.99894
  0
LINE
  5
89
100
AcDbEntity
  8
Bottom_outsideCutPath
  6
ByLayer
 62
  256
370
   -1
100
AcDbLine
 10
824.00192
 20
278.99894
 11
827.0042
 21
278.99894
  0
LINE
  5
8A
100
AcDbEntity
  8
Bottom_outsideCutPath
  6
ByLayer
 62
  256
370
   -1
100
AcDbLine
 10
827.0042
 20
278.99894
 11
827.0042
 21
289.99968
  0
LINE
  5
8B
100
AcDbEntity
  8
Bottom_outsideCutPath
  6
ByLayer
 62
  256
370
   -1
100
AcDbLine
 10
827.0042
 20
289.99968
 11
824.00192
 21
289.99968
  0
LINE
  5
8C
100
AcDbEntity
  8
Bottom_outsideCutPath
  6
ByLayer
 62
  256
370
   -1
100
AcDbLine
 10
824.00192
 20
289.99968
 11
824.00192
 21
301.00042
  0
LINE
  5
8D
100
AcDbEntity
  8
Bottom_outsideCutPath
  6
ByLayer
 62
  256
370
   -1
100
AcDbLine
 10
824.00192
 20
301.00042
 11
827.0042
 21
301.00042
  0
LINE
  5
8E
100
AcDbEntity
  8
Bottom_outsideCutPath
  6
ByLayer
 62
  256
370
   -1
100
AcDbLine
 10
827.0042
 20
301.00042
 11
827.0042
 21
321.00038
  0
LINE
  5
8F
100
AcDbEntity
  8
Bottom_outsideCutPath
  6
ByLayer
 62
  256
370
   -1
100
AcDbLine
 10
827.0042
 20
321.00038
 11
806.50386
 21
321.00038
  0
LINE
  5
90
100
AcDbEntity
  8
Bottom_outsideCutPath
  6
ByLayer
 62
  256
370
   -1
100
AcDbLine
 10
806.50386
 20
321.00038
 11
806.50386
 21
324.00012
  0
LINE
  5
91
100
AcDbEntity
  8
Bottom_outsideCutPath
  6
ByLayer
 62
  256
370
   -1
100
AcDbLine
 10
806.50386
 20
324.00012
 11
795.50312
 21
324.00012
  0
LINE
  5
92
100
AcDbEntity
  8
Bottom_outsideCutPath
  6
ByLayer
 62
  256
370
   -1
100
AcDbLine
 10
795.50312
 20
324.00012
 11
795.50312
 21
321.00038
  0
LINE
  5
93
100
AcDbEntity
  8
Bottom_outsideCutPath
  6
ByLayer
 62
  256
370
   -1
100
AcDbLine
 10
795.50312
 20
321.00038
 11
784.50238
 21
321.00038
  0
LINE
  5
94
100
AcDbEntity
  8
Bottom_outsideCutPath
  6
ByLayer
 62
  256
370
   -1
100
AcDbLine
 10
784.50238
 20
321.00038
 11
784.50238
 21
324.00012
  0
LINE
  5
95
100
AcDbEntity
  8
Bottom_outsideCutPath
  6
ByLayer
 62
  256
370
   -1
100
AcDbLine
 10
784.50238
 20
324.00012
 11
773.50418
 21
324.00012
  0
LINE
  5
96
100
AcDbEntity
  8
Bottom_outsideCutPath
  6
ByLayer
 62
  256
370
   -1
100
AcDbLine
 10
773.50418
 20
324.00012
 11
773.50418
 21
321.00038
  0
LINE
  5
97
100
AcDbEntity
  8
Bottom_outsideCutPath
  6
ByLayer
 62
  256
370
   -1
100
AcDbLine
 10
773.50418
 20
321.00038
 11
762.50344
 21
321.00038
  0
LINE
  5
98
100
AcDbEntity
  8
Bottom_outsideCutPath
  6
ByLayer
 62
  256
370
   -1
100
AcDbLine
 10
762.50344
 20
321.00038
 11
762.50344
 21
324.00012
  0
LINE
  5
99
100
AcDbEntity
  8
Bottom_outsideCutPath
  6
ByLayer
 62
  256
370
   -1
100
AcDbLine
 10
762.50344
 20
324.00012
 11
751.5027
 21
324.00012
  0
LINE
  5
9A
100
AcDbEntity
  8
Bottom_outsideCutPath
  6
ByLayer
 62
  256
370
   -1
100
AcDbLine
 10
751.5027
 20
324.00012
 11
751.5027
 21
321.00038
  0
LINE
  5
9B
100
AcDbEntity
  8
Bottom_outsideCutPath
  6
ByLayer
 62
  256
370
   -1
100
AcDbLine
 10
751.5027
 20
321.00038
 11
740.5019600000001
 21
321.00038
  0
LINE
  5
9C
100
AcDbEntity
  8
Bottom_outsideCutPath
  6
ByLayer
 62
  256
370
   -1
100
AcDbLine
 10
740.5019600000001
 20
321.00038
 11
740.5019600000001
 21
324.00012
  0
LINE
  5
9D
100
AcDbEntity
  8
Bottom_outsideCutPath
  6
ByLayer
 62
  256
370
   -1
100
AcDbLine
 10
740.5019600000001
 20
324.00012
 11
729.5037600000001
 21
324.00012
  0
LINE
  5
9E
100
AcDbEntity
  8
Bottom_outsideCutPath
  6
ByLayer
 62
  256
370
   -1
100
AcDbLine
 10
729.5037600000001
 20
324.00012
 11
729.5037600000001
 21
321.00038
  0
LINE
  5
9F
100
AcDbEntity
  8
Bottom_outsideCutPath
  6
ByLayer
 62
  256
370
   -1
100
AcDbLine
 10
729.5037600000001
 20
321.00038
 11
718.50302
 21
321.00038
  0
LINE
  5
A0
100
AcDbEntity
  8
Bottom_outsideCutPath
  6
ByLayer
 62
  256
370
   -1
100
AcDbLine
 10
718.50302
 20
321.00038
 11
718.50302
 21
324.00012
  0
LINE
  5
A1
100
AcDbEntity
  8
Bottom_outsideCutPath
  6
ByLayer
 62
  256
370
   -1
100
AcDbLine
 10
718.50302
 20
324.00012
 11
707.50228
 21
324.00012
  0
LINE
  5
A2
100
AcDbEntity
  8
Bottom_outsideCutPath
  6
ByLayer
 62
  256
370
   -1
100
AcDbLine
 10
707.50228
 20
324.00012
 11
707.50228
 21
321.00038
  0
LINE
  5
A3
100
AcDbEntity
  8
Bottom_outsideCutPath
  6
ByLayer
 62
  256
370
   -1
100
AcDbLine
 10
707.50228
 20
321.00038
 11
696.50408
 21
321.00038
  0
LINE
  5
A4
100
AcDbEntity
  8
Bottom_outsideCutPath
  6
ByLayer
 62
  256
370
   -1
100
AcDbLine
 10
696.50408
 20
321.00038
 11
696.50408
 21
324.00012
  0
LINE
  5
A5
100
AcDbEntity
  8
Bottom_outsideCutPath
  6
ByLayer
 62
  256
370
   -1
100
AcDbLine
 10
696.50408
 20
324.00012
 11
685.50334
 21
324.00012
  0
LINE
  5
A6
100
AcDbEntity
  8
Bottom_outsideCutPath
  6
ByLayer
 62
  256
370
   -1
100
AcDbLine
 10
685.50334
 20
324.00012
 11
685.50334
 21
321.00038
  0
LINE
  5
A7
100
AcDbEntity
  8
Bottom_outsideCutPath
  6
ByLayer
 62
  256
370
   -1
100
AcDbLine
 10
685.50334
 20
321.00038
 11
674.5026
 21
321.00038
  0
LINE
  5
A8
100
AcDbEntity
  8
Bottom_outsideCutPath
  6
ByLayer
 62
  256
370
   -1
100
AcDbLine
 10
674.5026
 20
321.00038
 11
674.5026
 21
324.00012
  0
LINE
  5
A9
100
AcDbEntity
  8
Bottom_outsideCutPath
  6
ByLayer
 62
  256
370
   -1
100
AcDbLine
 10
674.5026
 20
324.00012
 11
663.5044
 21
324.00012
  0
LINE
  5
AA
100
AcDbEntity
  8
Bottom_outsideCutPath
  6
ByLayer
 62
  256
370
   -1
100
AcDbLine
 10
663.5044
 20
324.00012
 11
663.5044
 21
321.00038
  0
LINE
  5
AB
100
AcDbEntity
  8
Bottom_outsideCutPath
  6
ByLayer
 62
  256
370
   -1
100
AcDbLine
 10
663.5044
 20
321.00038
 11
652.50366
 21
321.00038
  0
LINE
  5
AC
100
AcDbEntity
  8
Bottom_outsideCutPath
  6
ByLayer
 62
  256
370
   -1
100
AcDbLine
 10
652.50366
 20
321.00038
 11
652.50366
 21
324.00012
  0
LINE
  5
AD
100
AcDbEntity
  8
Bottom_outsideCutPath
  6
ByLayer
 62
  256
370
   -1
100
AcDbLine
 10
652.50366
 20
324.00012
 11
641.50292
 21
324.00012
  0
LINE
  5
AE
100
AcDbEntity
  8
Bottom_outsideCutPath
  6
ByLayer
 62
  256
370
   -1
100
AcDbLine
 10
641.50292
 20
324.00012
 11
641.50292
 21
321.00038
  0
LINE
  5
AF
100
AcDbEntity
  8
Bottom_outsideCutPath
  6
ByLayer
 62
  256
370
   -1
100
AcDbLine
 10
641.50292
 20
321.00038
 11
630.50218
 21
321.00038
  0
LINE
  5
B0
100
AcDbEntity
  8
Bottom_outsideCutPath
  6
ByLayer
 62
  256
370
   -1
100
AcDbLine
 10
630.50218
 20
321.00038
 11
630.50218
 21
324.00012
  0
LINE
  5
B1
100
AcDbEntity
  8
Bottom_outsideCutPath
  6
ByLayer
 62
  256
370
   -1
100
AcDbLine
 10
630.50218
 20
324.00012
 11
619.50398
 21
324.00012
  0
LINE
  5
B2
100
AcDbEntity
  8
Bottom_outsideCutPath
  6
ByLayer
 62
  256
370
   -1
100
AcDbLine
 10
619.50398
 20
324.00012
 11
619.50398
 21
321.00038
  0
LINE
  5
B3
100
AcDbEntity
  8
Bottom_outsideCutPath
  6
ByLayer
 62
  256
370
   -1
100
AcDbLine
 10
619.50398
 20
321.00038
 11
608.50324
 21
321.00038
  0
LINE
  5
B4
100
AcDbEntity
  8
Bottom_outsideCutPath
  6
ByLayer
 62
  256
370
   -1
100
AcDbLine
 10
608.50324
 20
321.00038
 11
608.50324
 21
324.00012
  0
LINE
  5
B5
100
AcDbEntity
  8
Bottom_outsideCutPath
  6
ByLayer
 62
  256
370
   -1
100
AcDbLine
 10
608.50324
 20
324.00012
 11
597.5025000000001
 21
324.00012
  0
LINE
  5
B6
100
AcDbEntity
  8
Bottom_outsideCutPath
  6
ByLayer
 62
  256
370
   -1
100
AcDbLine
 10
597.5025000000001
 20
324.00012
 11
597.5025000000001
 21
321.00038
  0
LINE
  5
B7
100
AcDbEntity
  8
Bottom_outsideCutPath
  6
ByLayer
 62
  256
370
   -1
100
AcDbLine
 10
597.5025000000001
 20
321.00038
 11
577.00216
 21
321.00038
  0
LINE
  5
B8
100
AcDbEntity
  8
Bottom_outsideCutPath
  6
ByLayer
 62
  256
370
   -1
100
AcDbLine
 10
577.00216
 20
321.00038
 11
577.00216
 21
301.00042
  0
LINE
  5
B9
100
AcDbEntity
  8
Bottom_outsideCutPath
  6
ByLayer
 62
  256
370
   -1
100
AcDbLine
 10
577.00216
 20
301.00042
 11
580.00444
 21
301.00042
  0
LINE
  5
BA
100
AcDbEntity
  8
Bottom_outsideCutPath
  6
ByLayer
 62
  256
370
   -1
100
AcDbLine
 10
580.00444
 20
301.00042
 11
580.00444
 21
289.99968
  0
LINE
  5
BB
100
AcDbEntity
  8
Bottom_outsideCutPath
  6
ByLayer
 62
  256
370
   -1
100
AcDbLine
 10
580.00444
 20
289.99968
 11
577.00216
 21
289.99968
  0
LINE
  5
BC
100
AcDbEntity
  8
Bottom_outsideCutPath
  6
ByLayer
 62
  256
370
   -1
100
AcDbLine
 10
577.00216
 20
289.99968
 11
577.00216
 21
278.99894
  0
LINE
  5
BD
100
AcDbEntity
  8
Bottom_outsideCutPath
  6
ByLayer
 62
  256
370
   -1
100
AcDbLine
 10
577.00216
 20
278.99894
 11
580.00444
 21
278.99894
  0
LINE
  5
BE
100
AcDbEntity
  8
Bottom_outsideCutPath
  6
ByLayer
 62
  256
370
   -1
100
AcDbLine
 10
580.00444
 20
278.99894
 11
580.00444
 21
268.00074
  0
LINE
  5
BF
100
AcDbEntity
  8
Bottom_outsideCutPath
  6
ByLayer
 62
  256
370
   -1
100
AcDbLine
 10
580.00444
 20
268.00074
 11
577.00216
 21
268.00074
  0
LINE
  5
C0
100
AcDbEntity
  8
Bottom_outsideCutPath
  6
ByLayer
 62
  256
370
   -1
100
AcDbLine
 10
577.00216
 20
268.00074
 11
577.00216
 21
257
  0
LINE
  5
C1
100
AcDbEntity
  8
Bottom_outsideCutPath
  6
ByLayer
 62
  256
370
   -1
100
AcDbLine
 10
577.00216
 20
257
 11
580.00444
 21
257
  0
LINE
  5
C2
100
AcDbEntity
  8
Bottom_outsideCutPath
  6
ByLayer
 62
  256
370
   -1
100
AcDbLine
 10
580.00444
 20
257
 11
580.00444
 21
245.99926
  0
LINE
  5
C3
100
AcDbEntity
  8
Bottom_outsideCutPath
  6
ByLayer
 62
  256
370
   -1
100
AcDbLine
 10
580.00444
 20
245.99926
 11
577.00216
 21
245.99926
  0
LINE
  5
C4
100
AcDbEntity
  8
Bottom_outsideCutPath
  6
ByLayer
 62
  256
370
   -1
100
AcDbLine
 10
577.00216
 20
245.99926
 11
577.00216
 21
235.00106
  0
LINE
  5
C5
100
AcDbEntity
  8
Bottom_outsideCutPath
  6
ByLayer
 62
  256
370
   -1
100
AcDbLine
 10
577.00216
 20
235.00106
 11
580.00444
 21
235.00106
  0
LINE
  5
C6
100
AcDbEntity
  8
Bottom_outsideCutPath
  6
ByLayer
 62
  256
370
   -1
100
AcDbLine
 10
580.00444
 20
235.00106
 11
580.00444
 21
224.00032
  0
LINE
  5
C7
100
AcDbEntity
  8
Bottom_outsideCutPath
  6
ByLayer
 62
  256
370
   -1
100
AcDbLine
 10
580.00444
 20
224.00032
 11
577.00216
 21
224.00032
  0
LINE
  5
C8
100
AcDbEntity
  8
Bottom_outsideCutPath
  6
ByLayer
 62
  256
370
   -1
100
AcDbLine
 10
577.00216
 20
224.00032
 11
577.00216
 21
212.99958
  0
LINE
  5
C9
100
AcDbEntity
  8
Bottom_outsideCutPath
  6
ByLayer
 62
  256
370
   -1
100
AcDbLine
 10
577.00216
 20
212.99958
 11
580.00444
 21
212.99958
  0
LINE
  5
CA
100
AcDbEntity
  8
Bottom_outsideCutPath
  6
ByLayer
 62
  256
370
   -1
100
AcDbLine
 10
580.00444
 20
212.99958
 11
580.00444
 21
201.99884
  0
LINE
  5
CB
100
AcDbEntity
  8
Bottom_outsideCutPath
  6
ByLayer
 62
  256
370
   -1
100
AcDbLine
 10
580.00444
 20
201.99884
 11
577.00216
 21
201.99884
  0
LINE
  5
CC
100
AcDbEntity
  8
Bottom_outsideCutPath
  6
ByLayer
 62
  256
370
   -1
100
AcDbLine
 10
577.00216
 20
201.99884
 11
577.00216
 21
191.00064
  0
LINE
  5
CD
100
AcDbEntity
  8
Bottom_outsideCutPath
  6
ByLayer
 62
  256
370
   -1
100
AcDbLine
 10
577.00216
 20
191.00064
 11
580.00444
 21
191.00064
  0
LINE
  5
CE
100
AcDbEntity
  8
Bottom_outsideCutPath
  6
ByLayer
 62
  256
370
   -1
100
AcDbLine
 10
580.00444
 20
191.00064
 11
580.00444
 21
179.9999
  0
LINE
  5
CF
100
AcDbEntity
  8
Bottom_outsideCutPath
  6
ByLayer
 62
  256
370
   -1
100
AcDbLine
 10
580.00444
 20
179.9999
 11
577.00216
 21
179.9999
  0
LINE
  5
D0
100
AcDbEntity
  8
Bottom_outsideCutPath
  6
ByLayer
 62
  256
370
   -1
100
AcDbLine
 10
577.00216
 20
179.9999
 11
577.00216
 21
168.99916
  0
LINE
  5
D1
100
AcDbEntity
  8
Bottom_outsideCutPath
  6
ByLayer
 62
  256
370
   -1
100
AcDbLine
 10
577.00216
 20
168.99916
 11
580.00444
 21
168.99916
  0
LINE
  5
D2
100
AcDbEntity
  8
Bottom_outsideCutPath
  6
ByLayer
 62
  256
370
   -1
100
AcDbLine
 10
580.00444
 20
168.99916
 11
580.00444
 21
158.00096
  0
LINE
  5
D3
100
AcDbEntity
  8
Bottom_outsideCutPath
  6
ByLayer
 62
  256
370
   -1
100
AcDbLine
 10
580.00444
 20
158.00096
 11
577.00216
 21
158.00096
  0
LINE
  5
D4
100
AcDbEntity
  8
Bottom_outsideCutPath
  6
ByLayer
 62
  256
370
   -1
100
AcDbLine
 10
577.00216
 20
158.00096
 11
577.00216
 21
147.00022
  0
LINE
  5
D5
100
AcDbEntity
  8
Bottom_outsideCutPath
  6
ByLayer
 62
  256
370
   -1
100
AcDbLine
 10
577.00216
 20
147.00022
 11
580.00444
 21
147.00022
  0
LINE
  5
D6
100
AcDbEntity
  8
Bottom_outsideCutPath
  6
ByLayer
 62
  256
370
   -1
100
AcDbLine
 10
580.00444
 20
147.00022
 11
580.00444
 21
135.99948
  0
LINE
  5
D7
100
AcDbEntity
  8
Bottom_outsideCutPath
  6
ByLayer
 62
  256
370
   -1
100
AcDbLine
 10
580.00444
 20
135.99948
 11
577.00216
 21
135.99948
  0
LINE
  5
D8
100
AcDbEntity
  8
Bottom_outsideCutPath
  6
ByLayer
 62
  256
370
   -1
100
AcDbLine
 10
577.00216
 20
135.99948
 11
577.00216
 21
125.00128
  0
LINE
  5
D9
100
AcDbEntity
  8
Bottom_outsideCutPath
  6
ByLayer
 62
  256
370
   -1
100
AcDbLine
 10
577.00216
 20
125.00128
 11
580.00444
 21
125.00128
  0
LINE
  5
DA
100
AcDbEntity
  8
Bottom_outsideCutPath
  6
ByLayer
 62
  256
370
   -1
100
AcDbLine
 10
580.00444
 20
125.00128
 11
580.00444
 21
114.00054
  0
LINE
  5
DB
100
AcDbEntity
  8
Bottom_outsideCutPath
  6
ByLayer
 62
  256
370
   -1
100
AcDbLine
 10
580.00444
 20
114.00054
 11
577.00216
 21
114.00054
  0
LINE
  5
DC
100
AcDbEntity
  8
Bottom_outsideCutPath
  6
ByLayer
 62
  256
370
   -1
100
AcDbLine
 10
577.00216
 20
114.00054
 11
577.00216
 21
102.9998
  0
LINE
  5
DD
100
AcDbEntity
  8
Bottom_outsideCutPath
  6
ByLayer
 62
  256
370
   -1
100
AcDbLine
 10
577.00216
 20
102.9998
 11
580.00444
 21
102.9998
  0
LINE
  5
DE
100
AcDbEntity
  8
Bottom_outsideCutPath
  6
ByLayer
 62
  256
370
   -1
100
AcDbLine
 10
580.00444
 20
102.9998
 11
580.00444
 21
91.99906
  0
LINE
  5
DF
100
AcDbEntity
  8
Bottom_outsideCutPath
  6
ByLayer
 62
  256
370
   -1
100
AcDbLine
 10
580.00444
 20
91.99906
 11
577.00216
 21
91.99906
  0
LINE
  5
E0
100
AcDbEntity
  8
Bottom_outsideCutPath
  6
ByLayer
 62
  256
370
   -1
100
AcDbLine
 10
577.00216
 20
91.99906
 11
577.00216
 21
81.00086
  0
LINE
  5
E1
100
AcDbEntity
  8
Bottom_outsideCutPath
  6
ByLayer
 62
  256
370
   -1
100
AcDbLine
 10
577.00216
 20
81.00086
 11
580.00444
 21
81.00086
  0
LINE
  5
E2
100
AcDbEntity
  8
Bottom_outsideCutPath
  6
ByLayer
 62
  256
370
   -1
100
AcDbLine
 10
580.00444
 20
81.00086
 11
580.00444
 21
70.00012
  0
LINE
  5
E3
100
AcDbEntity
  8
Bottom_outsideCutPath
  6
ByLayer
 62
  256
370
   -1
100
AcDbLine
 10
580.00444
 20
70.00012
 11
577.00216
 21
70.00012
  0
LINE
  5
E4
100
AcDbEntity
  8
Bottom_outsideCutPath
  6
ByLayer
 62
  256
370
   -1
100
AcDbLine
 10
577.00216
 20
70.00012
 11
577.00216
 21
58.99938
  0
LINE
  5
E5
100
AcDbEntity
  8
Bottom_outsideCutPath
  6
ByLayer
 62
  256
370
   -1
100
AcDbLine
 10
577.00216
 20
58.99938
 11
580.00444
 21
58.99938
  0
LINE
  5
E6
100
AcDbEntity
  8
Bottom_outsideCutPath
  6
ByLayer
 62
  256
370
   -1
100
AcDbLine
 10
580.00444
 20
58.99938
 11
580.00444
 21
48.00118
  0
LINE
  5
E7
100
AcDbEntity
  8
Bottom_outsideCutPath
  6
ByLayer
 62
  256
370
   -1
100
AcDbLine
 10
580.00444
 20
48.00118
 11
577.00216
 21
48.00118
  0
LINE
  5
E8
100
AcDbEntity
  8
Bottom_outsideCutPath
  6
ByLayer
 62
  256
370
   -1
100
AcDbLine
 10
577.00216
 20
48.00118
 11
577.00216
 21
37.00044
  0
LINE
  5
E9
100
AcDbEntity
  8
Bottom_outsideCutPath
  6
ByLayer
 62
  256
370
   -1
100
AcDbLine
 10
577.00216
 20
37.00044
 11
580.00444
 21
37.00044
  0
LINE
  5
EA
100
AcDbEntity
  8
Bottom_outsideCutPath
  6
ByLayer
 62
  256
370
   -1
100
AcDbLine
 10
580.00444
 20
37.00044
 11
580.00444
 21
25.9997
  0
LINE
  5
EB
100
AcDbEntity
  8
Bottom_outsideCutPath
  6
ByLayer
 62
  256
370
   -1
100
AcDbLine
 10
580.00444
 20
25.9997
 11
577.00216
 21
25.9997
  0
LINE
  5
EC
100
AcDbEntity
  8
Bottom_outsideCutPath
  6
ByLayer
 62
  256
370
   -1
100
AcDbLine
 10
577.00216
 20
25.9997
 11
577.00216
 21
5.99974
  0
LINE
  5
ED
100
AcDbEntity
  8
Bottom_outsideCutPath
  6
ByLayer
 62
  256
370
   -1
100
AcDbLine
 10
577.00216
 20
5.99974
 11
597.5025000000001
 21
5.99974
  0
LINE
  5
EE
100
AcDbEntity
  8
Bottom_outsideCutPath
  6
ByLayer
 62
  256
370
   -1
100
AcDbLine
 10
597.5025000000001
 20
5.99974
 11
597.5025000000001
 21
3
  0
LINE
  5
EF
100
AcDbEntity
  8
Bottom_outsideCutPath
  6
ByLayer
 62
  256
370
   -1
100
AcDbLine
 10
597.5025000000001
 20
3
 11
608.50324
 21
3
  0
LINE
  5
F0
100
AcDbEntity
  8
Bottom_outsideCutPath
  6
ByLayer
 62
  256
370
   -1
100
AcDbLine
 10
608.50324
 20
3
 11
608.50324
 21
5.99974
  0
LINE
  5
F1
100
AcDbEntity
  8
Bottom_outsideCutPath
  6
ByLayer
 62
  256
370
   -1
100
AcDbLine
 10
608.50324
 20
5.99974
 11
619.50398
 21
5.99974
  0
LINE
  5
F2
100
AcDbEntity
  8
Bottom_outsideCutPath
  6
ByLayer
 62
  256
370
   -1
100
AcDbLine
 10
619.50398
 20
5.99974
 11
619.50398
 21
3
  0
LINE
  5
F3
100
AcDbEntity
  8
Bottom_outsideCutPath
  6
ByLayer
 62
  256
370
   -1
100
AcDbLine
 10
619.50398
 20
3
 11
630.50218
 21
3
  0
LINE
  5
F4
100
AcDbEntity
  8
Bottom_outsideCutPath
  6
ByLayer
 62
  256
370
   -1
100
AcDbLine
 10
630.50218
 20
3
 11
630.50218
 21
5.99974
  0
LINE
  5
F5
100
AcDbEntity
  8
Bottom_outsideCutPath
  6
ByLayer
 62
  256
370
   -1
100
AcDbLine
 10
630.50218
 20
5.99974
 11
641.50292
 21
5.99974
  0
LINE
  5
F6
100
AcDbEntity
  8
Bottom_outsideCutPath
  6
ByLayer
 62
  256
370
   -1
100
AcDbLine
 10
641.50292
 20
5.99974
 11
641.50292
 21
3
  0
LINE
  5
F7
100
AcDbEntity
  8
Bottom_outsideCutPath
  6
ByLayer
 62
  256
370
   -1
100
AcDbLine
 10
641.50292
 20
3
 11
652.50366
 21
3
  0
LINE
  5
F8
100
AcDbEntity
  8
Bottom_outsideCutPath
  6
ByLayer
 62
  256
370
   -1
100
AcDbLine
 10
652.50366
 20
3
 11
652.50366
 21
5.99974
  0
LINE
  5
F9
100
AcDbEntity
  8
Bottom_outsideCutPath
  6
ByLayer
 62
  256
370
   -1
100
AcDbLine
 10
652.50366
 20
5.99974
 11
663.5044
 21
5.99974
  0
LINE
  5
FA
100
AcDbEntity
  8
Bottom_outsideCutPath
  6
ByLayer
 62
  256
370
   -1
100
AcDbLine
 10
663.5044
 20
5.99974
 11
663.5044
 21
3
  0
LINE
  5
FB
100
AcDbEntity
  8
Bottom_outsideCutPath
  6
ByLayer
 62
  256
370
   -1
100
AcDbLine
 10
663.5044
 20
3
 11
674.5026
 21
3
  0
LINE
  5
FC
100
AcDbEntity
  8
Bottom_outsideCutPath
  6
ByLayer
 62
  256
370
   -1
100
AcDbLine
 10
674.5026
 20
3
 11
674.5026
 21
5.99974
  0
LINE
  5
FD
100
AcDbEntity
  8
Bottom_outsideCutPath
  6
ByLayer
 62
  256
370
   -1
100
AcDbLine
 10
674.5026
 20
5.99974
 11
685.50334
 21
5.99974
  0
LINE
  5
FE
100
AcDbEntity
  8
Bottom_outsideCutPath
  6
ByLayer
 62
  256
370
   -1
100
AcDbLine
 10
685.50334
 20
5.99974
 11
685.50334
 21
3
  0
LINE
  5
FF
100
AcDbEntity
  8
Bottom_outsideCutPath
  6
ByLayer
 62
  256
370
   -1
100
AcDbLine
 10
685.50334
 20
3
 11
696.50408
 21
3
  0
LINE
  5
100
100
AcDbEntity
  8
Bottom_outsideCutPath
  6
ByLayer
 62
  256
370
   -1
100
AcDbLine
 10
696.50408
 20
3
 11
696.50408
 21
5.99974
  0
LINE
  5
101
100
AcDbEntity
  8
Bottom_outsideCutPath
  6
ByLayer
 62
  256
370
   -1
100
AcDbLine
 10
696.50408
 20
5.99974
 11
707.50228
 21
5.99974
  0
LINE
  5
102
100
AcDbEntity
  8
Bottom_outsideCutPath
  6
ByLayer
 62
  256
370
   -1
100
AcDbLine
 10
707.50228
 20
5.99974
 11
707.50228
 21
3
  0
LINE
  5
103
100
AcDbEntity
  8
Bottom_outsideCutPath
  6
ByLayer
 62
  256
370
   -1
100
AcDbLine
 10
707.50228
 20
3
 11
718.50302
 21
3
  0
LINE
  5
104
100
AcDbEntity
  8
Bottom_outsideCutPath
  6
ByLayer
 62
  256
370
   -1
100
AcDbLine
 10
718.50302
 20
3
 11
718.50302
 21
5.99974
  0
LINE
  5
105
100
AcDbEntity
  8
Bottom_outsideCutPath
  6
ByLayer
 62
  256
370
   -1
100
AcDbLine
 10
718.50302
 20
5.99974
 11
729.5037600000001
 21
5.99974
  0
LINE
  5
106
100
AcDbEntity
  8
Bottom_outsideCutPath
  6
ByLayer
 62
  256
370
   -1
100
AcDbLine
 10
729.5037600000001
 20
5.99974
 11
729.5037600000001
 21
3
  0
LINE
  5
107
100
AcDbEntity
  8
Bottom_outsideCutPath
  6
ByLayer
 62
  256
370
   -1
100
AcDbLine
 10
729.5037600000001
 20
3
 11
740.5019600000001
 21
3
  0
LINE
  5
108
100
AcDbEntity
  8
Bottom_outsideCutPath
  6
ByLayer
 62
  256
370
   -1
100
AcDbLine
 10
740.5019600000001
 20
3
 11
740.5019600000001
 21
5.99974
  0
LINE
  5
109
100
AcDbEntity
  8
Bottom_outsideCutPath
  6
ByLayer
 62
  256
370
   -1
100
AcDbLine
 10
740.5019600000001
 20
5.99974
 11
751.5027
 21
5.99974
  0
LINE
  5
10A
100
AcDbEntity
  8
Bottom_outsideCutPath
  6
ByLayer
 62
  256
370
   -1
100
AcDbLine
 10
751.5027
 20
5.99974
 11
751.5027
 21
3
  0
LINE
  5
10B
100
AcDbEntity
  8
Bottom_outsideCutPath
  6
ByLayer
 62
  256
370
   -1
100
AcDbLine
 10
751.5027
 20
3
 11
762.50344
 21
3
  0
LINE
  5
10C
100
AcDbEntity
  8
Bottom_outsideCutPath
  6
ByLayer
 62
  256
370
   -1
100
AcDbLine
 10
762.50344
 20
3
 11
762.50344
 21
5.99974
  0
LINE
  5
10D
100
AcDbEntity
  8
Bottom_outsideCutPath
  6
ByLayer
 62
  256
370
   -1
100
AcDbLine
 10
762.50344
 20
5.99974
 11
773.50418
 21
5.99974
  0
LINE
  5
10E
100
AcDbEntity
  8
Bottom_outsideCutPath
  6
ByLayer
 62
  256
370
   -1
100
AcDbLine
 10
773.50418
 20
5.99974
 11
773.50418
 21
3
  0
LINE
  5
10F
100
AcDbEntity
  8
Bottom_outsideCutPath
  6
ByLayer
 62
  256
370
   -1
100
AcDbLine
 10
773.50418
 20
3
 11
784.50238
 21
3
  0
LINE
  5
110
100
AcDbEntity
  8
Bottom_outsideCutPath
  6
ByLayer
 62
  256
370
   -1
100
AcDbLine
 10
784.50238
 20
3
 11
784.50238
 21
5.99974
  0
LINE
  5
111
100
AcDbEntity
  8
Bottom_outsideCutPath
  6
ByLayer
 62
  256
370
   -1
100
AcDbLine
 10
784.50238
 20
5.99974
 11
795.50312
 21
5.99974
  0
LINE
  5
112
100
AcDbEntity
  8
Bottom_outsideCutPath
  6
ByLayer
 62
  256
370
   -1
100
AcDbLine
 10
795.50312
 20
5.99974
 11
795.50312
 21
3
  0
LINE
  5
113
100
AcDbEntity
  8
Bottom_outsideCutPath
  6
ByLayer
 62
  256
370
   -1
100
AcDbLine
 10
795.50312
 20
3
 11
806.50386
 21
3
  0
LINE
  5
114
100
AcDbEntity
  8
transparente
  6
ByLayer
 62
  256
370
   -1
100
AcDbLine
 10
287.00248
 20
5.99974
 11
298.00322
 21
5.99974
  0
LINE
  5
115
100
AcDbEntity
  8
transparente
  6
ByLayer
 62
  256
370
   -1
100
AcDbLine
 10
298.00322
 20
5.99974
 11
298.00322
 21
3
  0
LINE
  5
116
100
AcDbEntity
  8
transparente
  6
ByLayer
 62
  256
370
   -1
100
AcDbLine
 10
298.00322
 20
3
 11
309.00142
 21
3
  0
LINE
  5
117
100
AcDbEntity
  8
transparente
  6
ByLayer
 62
  256
370
   -1
100
AcDbLine
 10
309.00142
 20
3
 11
309.00142
 21
5.99974
  0
LINE
  5
118
100
AcDbEntity
  8
transparente
  6
ByLayer
 62
  256
370
   -1
100
AcDbLine
 10
309.00142
 20
5.99974
 11
320.00216
 21
5.99974
  0
LINE
  5
119
100
AcDbEntity
  8
transparente
  6
ByLayer
 62
  256
370
   -1
100
AcDbLine
 10
320.00216
 20
5.99974
 11
320.00216
 21
3
  0
LINE
  5
11A
100
AcDbEntity
  8
transparente
  6
ByLayer
 62
  256
370
   -1
100
AcDbLine
 10
320.00216
 20
3
 11
331.0029
 21
3
  0
LINE
  5
11B
100
AcDbEntity
  8
transparente
  6
ByLayer
 62
  256
370
   -1
100
AcDbLine
 10
331.0029
 20
3
 11
331.0029
 21
5.99974
  0
LINE
  5
11C
100
AcDbEntity
  8
transparente
  6
ByLayer
 62
  256
370
   -1
100
AcDbLine
 10
331.0029
 20
5.99974
 11
342.0011
 21
5.99974
  0
LINE
  5
11D
100
AcDbEntity
  8
transparente
  6
ByLayer
 62
  256
370
   -1
100
AcDbLine
 10
342.0011
 20
5.99974
 11
342.0011
 21
3
  0
LINE
  5
11E
100
AcDbEntity
  8
transparente
  6
ByLayer
 62
  256
370
   -1
100
AcDbLine
 10
342.0011
 20
3
 11
353.00184
 21
3
  0
LINE
  5
11F
100
AcDbEntity
  8
transparente
  6
ByLayer
 62
  256
370
   -1
100
AcDbLine
 10
353.00184
 20
3
 11
353.00184
 21
5.99974
  0
LINE
  5
120
100
AcDbEntity
  8
transparente
  6
ByLayer
 62
  256
370
   -1
100
AcDbLine
 10
353.00184
 20
5.99974
 11
364.00258
 21
5.99974
  0
LINE
  5
121
100
AcDbEntity
  8
transparente
  6
ByLayer
 62
  256
370
   -1
100
AcDbLine
 10
364.00258
 20
5.99974
 11
364.00258
 21
3
  0
LINE
  5
122
100
AcDbEntity
  8
transparente
  6
ByLayer
 62
  256
370
   -1
100
AcDbLine
 10
364.00258
 20
3
 11
375.00332
 21
3
  0
LINE
  5
123
100
AcDbEntity
  8
transparente
  6
ByLayer
 62
  256
370
   -1
100
AcDbLine
 10
375.00332
 20
3
 11
375.00332
 21
5.99974
  0
LINE
  5
124
100
AcDbEntity
  8
transparente
  6
ByLayer
 62
  256
370
   -1
100
AcDbLine
 10
375.00332
 20
5.99974
 11
386.00152
 21
5.99974
  0
LINE
  5
125
100
AcDbEntity
  8
transparente
  6
ByLayer
 62
  256
370
   -1
100
AcDbLine
 10
386.00152
 20
5.99974
 11
386.00152
 21
3
  0
LINE
  5
126
100
AcDbEntity
  8
transparente
  6
ByLayer
 62
  256
370
   -1
100
AcDbLine
 10
386.00152
 20
3
 11
397.00226
 21
3
  0
LINE
  5
127
100
AcDbEntity
  8
transparente
  6
ByLayer
 62
  256
370
   -1
100
AcDbLine
 10
397.00226
 20
3
 11
397.00226
 21
5.99974
  0
LINE
  5
128
100
AcDbEntity
  8
transparente
  6
ByLayer
 62
  256
370
   -1
100
AcDbLine
 10
397.00226
 20
5.99974
 11
408.003
 21
5.99974
  0
LINE
  5
129
100
AcDbEntity
  8
transparente
  6
ByLayer
 62
  256
370
   -1
100
AcDbLine
 10
408.003
 20
5.99974
 11
408.003
 21
3
  0
LINE
  5
12A
100
AcDbEntity
  8
transparente
  6
ByLayer
 62
  256
370
   -1
100
AcDbLine
 10
408.003
 20
3
 11
419.0012
 21
3
  0
LINE
  5
12B
100
AcDbEntity
  8
transparente
  6
ByLayer
 62
  256
370
   -1
100
AcDbLine
 10
419.0012
 20
3
 11
419.0012
 21
5.99974
  0
LINE
  5
12C
100
AcDbEntity
  8
transparente
  6
ByLayer
 62
  256
370
   -1
100
AcDbLine
 10
419.0012
 20
5.99974
 11
430.00194
 21
5.99974
  0
LINE
  5
12D
100
AcDbEntity
  8
transparente
  6
ByLayer
 62
  256
370
   -1
100
AcDbLine
 10
430.00194
 20
5.99974
 11
430.00194
 21
3
  0
LINE
  5
12E
100
AcDbEntity
  8
transparente
  6
ByLayer
 62
  256
370
   -1
100
AcDbLine
 10
430.00194
 20
3
 11
441.00268
 21
3
  0
LINE
  5
12F
100
AcDbEntity
  8
transparente
  6
ByLayer
 62
  256
370
   -1
100
AcDbLine
 10
441.00268
 20
3
 11
441.00268
 21
5.99974
  0
LINE
  5
130
100
AcDbEntity
  8
transparente
  6
ByLayer
 62
  256
370
   -1
100
AcDbLine
 10
441.00268
 20
5.99974
 11
452.00088
 21
5.99974
  0
LINE
  5
131
100
AcDbEntity
  8
transparente
  6
ByLayer
 62
  256
370
   -1
100
AcDbLine
 10
452.00088
 20
5.99974
 11
452.00088
 21
3
  0
LINE
  5
132
100
AcDbEntity
  8
transparente
  6
ByLayer
 62
  256
370
   -1
100
AcDbLine
 10
452.00088
 20
3
 11
463.00162
 21
3
  0
LINE
  5
133
100
AcDbEntity
  8
transparente
  6
ByLayer
 62
  256
370
   -1
100
AcDbLine
 10
463.00162
 20
3
 11
463.00162
 21
5.99974
  0
LINE
  5
134
100
AcDbEntity
  8
transparente
  6
ByLayer
 62
  256
370
   -1
100
AcDbLine
 10
463.00162
 20
5.99974
 11
474.00236
 21
5.99974
  0
LINE
  5
135
100
AcDbEntity
  8
transparente
  6
ByLayer
 62
  256
370
   -1
100
AcDbLine
 10
474.00236
 20
5.99974
 11
474.00236
 21
3
  0
LINE
  5
136
100
AcDbEntity
  8
transparente
  6
ByLayer
 62
  256
370
   -1
100
AcDbLine
 10
474.00236
 20
3
 11
485.0031
 21
3
  0
LINE
  5
137
100
AcDbEntity
  8
transparente
  6
ByLayer
 62
  256
370
   -1
100
AcDbLine
 10
485.0031
 20
3
 11
485.0031
 21
5.99974
  0
LINE
  5
138
100
AcDbEntity
  8
transparente
  6
ByLayer
 62
  256
370
   -1
100
AcDbLine
 10
485.0031
 20
5.99974
 11
496.0013
 21
5.99974
  0
LINE
  5
139
100
AcDbEntity
  8
transparente
  6
ByLayer
 62
  256
370
   -1
100
AcDbLine
 10
496.0013
 20
5.99974
 11
496.0013
 21
3
  0
LINE
  5
13A
100
AcDbEntity
  8
transparente
  6
ByLayer
 62
  256
370
   -1
100
AcDbLine
 10
496.0013
 20
3
 11
507.00204
 21
3
  0
LINE
  5
13B
100
AcDbEntity
  8
transparente
  6
ByLayer
 62
  256
370
   -1
100
AcDbLine
 10
507.00204
 20
3
 11
507.00204
 21
5.99974
  0
LINE
  5
13C
100
AcDbEntity
  8
transparente
  6
ByLayer
 62
  256
370
   -1
100
AcDbLine
 10
507.00204
 20
5.99974
 11
518.00278
 21
5.99974
  0
LINE
  5
13D
100
AcDbEntity
  8
transparente
  6
ByLayer
 62
  256
370
   -1
100
AcDbLine
 10
518.00278
 20
5.99974
 11
518.00278
 21
3
  0
LINE
  5
13E
100
AcDbEntity
  8
transparente
  6
ByLayer
 62
  256
370
   -1
100
AcDbLine
 10
518.00278
 20
3
 11
529.00098
 21
3
  0
LINE
  5
13F
100
AcDbEntity
  8
transparente
  6
ByLayer
 62
  256
370
   -1
100
AcDbLine
 10
529.00098
 20
3
 11
529.00098
 21
5.99974
  0
LINE
  5
140
100
AcDbEntity
  8
transparente
  6
ByLayer
 62
  256
370
   -1
100
AcDbLine
 10
529.00098
 20
5.99974
 11
540.00172
 21
5.99974
  0
LINE
  5
141
100
AcDbEntity
  8
transparente
  6
ByLayer
 62
  256
370
   -1
100
AcDbLine
 10
540.00172
 20
5.99974
 11
540.00172
 21
3
  0
LINE
  5
142
100
AcDbEntity
  8
transparente
  6
ByLayer
 62
  256
370
   -1
100
AcDbLine
 10
540.00172
 20
3
 11
551.00246
 21
3
  0
LINE
  5
143
100
AcDbEntity
  8
transparente
  6
ByLayer
 62
  256
370
   -1
100
AcDbLine
 10
551.00246
 20
3
 11
551.00246
 21
5.99974
  0
LINE
  5
144
100
AcDbEntity
  8
transparente
  6
ByLayer
 62
  256
370
   -1
100
AcDbLine
 10
551.00246
 20
5.99974
 11
571.00242
 21
5.99974
  0
LINE
  5
145
100
AcDbEntity
  8
transparente
  6
ByLayer
 62
  256
370
   -1
100
AcDbLine
 10
571.00242
 20
5.99974
 11
571.00242
 21
24.00072
  0
LINE
  5
146
100
AcDbEntity
  8
transparente
  6
ByLayer
 62
  256
370
   -1
100
AcDbLine
 10
571.00242
 20
24.00072
 11
574.00216
 21
24.00072
  0
LINE
  5
147
100
AcDbEntity
  8
transparente
  6
ByLayer
 62
  256
370
   -1
100
AcDbLine
 10
574.00216
 20
24.00072
 11
574.00216
 21
34.99892
  0
LINE
  5
148
100
AcDbEntity
  8
transparente
  6
ByLayer
 62
  256
370
   -1
100
AcDbLine
 10
574.00216
 20
34.99892
 11
571.00242
 21
34.99892
  0
LINE
  5
149
100
AcDbEntity
  8
transparente
  6
ByLayer
 62
  256
370
   -1
100
AcDbLine
 10
571.00242
 20
34.99892
 11
571.00242
 21
55.99964
  0
LINE
  5
14A
100
AcDbEntity
  8
transparente
  6
ByLayer
 62
  256
370
   -1
100
AcDbLine
 10
571.00242
 20
55.99964
 11
520.00176
 21
55.99964
  0
LINE
  5
14B
100
AcDbEntity
  8
transparente
  6
ByLayer
 62
  256
370
   -1
100
AcDbLine
 10
520.00176
 20
55.99964
 11
520.00176
 21
31.00096
  0
LINE
  5
14C
100
AcDbEntity
  8
transparente
  6
ByLayer
 62
  256
370
   -1
100
AcDbLine
 10
520.00176
 20
31.00096
 11
517.00202
 21
31.00096
  0
LINE
  5
14D
100
AcDbEntity
  8
transparente
  6
ByLayer
 62
  256
370
   -1
100
AcDbLine
 10
517.00202
 20
31.00096
 11
517.00202
 21
55.99964
  0
LINE
  5
14E
100
AcDbEntity
  8
transparente
  6
ByLayer
 62
  256
370
   -1
100
AcDbLine
 10
517.00202
 20
55.99964
 11
467.5025
 21
55.99964
  0
LINE
  5
14F
100
AcDbEntity
  8
transparente
  6
ByLayer
 62
  256
370
   -1
100
AcDbLine
 10
467.5025
 20
55.99964
 11
467.5025
 21
31.00096
  0
LINE
  5
150
100
AcDbEntity
  8
transparente
  6
ByLayer
 62
  256
370
   -1
100
AcDbLine
 10
467.5025
 20
31.00096
 11
464.50276
 21
31.00096
  0
LINE
  5
151
100
AcDbEntity
  8
transparente
  6
ByLayer
 62
  256
370
   -1
100
AcDbLine
 10
464.50276
 20
31.00096
 11
464.50276
 21
55.99964
  0
LINE
  5
152
100
AcDbEntity
  8
transparente
  6
ByLayer
 62
  256
370
   -1
100
AcDbLine
 10
464.50276
 20
55.99964
 11
415.00324
 21
55.99964
  0
LINE
  5
153
100
AcDbEntity
  8
transparente
  6
ByLayer
 62
  256
370
   -1
100
AcDbLine
 10
415.00324
 20
55.99964
 11
415.00324
 21
31.00096
  0
LINE
  5
154
100
AcDbEntity
  8
transparente
  6
ByLayer
 62
  256
370
   -1
100
AcDbLine
 10
415.00324
 20
31.00096
 11
412.00096
 21
31.00096
  0
LINE
  5
155
100
AcDbEntity
  8
transparente
  6
ByLayer
 62
  256
370
   -1
100
AcDbLine
 10
412.00096
 20
31.00096
 11
412.00096
 21
55.99964
  0
LINE
  5
156
100
AcDbEntity
  8
transparente
  6
ByLayer
 62
  256
370
   -1
100
AcDbLine
 10
412.00096
 20
55.99964
 11
362.50144
 21
55.99964
  0
LINE
  5
157
100
AcDbEntity
  8
transparente
  6
ByLayer
 62
  256
370
   -1
100
AcDbLine
 10
362.50144
 20
55.99964
 11
362.50144
 21
31.00096
  0
LINE
  5
158
100
AcDbEntity
  8
transparente
  6
ByLayer
 62
  256
370
   -1
100
AcDbLine
 10
362.50144
 20
31.00096
 11
359.5017
 21
31.00096
  0
LINE
  5
159
100
AcDbEntity
  8
transparente
  6
ByLayer
 62
  256
370
   -1
100
AcDbLine
 10
359.5017
 20
31.00096
 11
359.5017
 21
55.99964
  0
LINE
  5
15A
100
AcDbEntity
  8
transparente
  6
ByLayer
 62
  256
370
   -1
100
AcDbLine
 10
359.5017
 20
55.99964
 11
310.00218
 21
55.99964
  0
LINE
  5
15B
100
AcDbEntity
  8
transparente
  6
ByLayer
 62
  256
370
   -1
100
AcDbLine
 10
310.00218
 20
55.99964
 11
310.00218
 21
31.00096
  0
LINE
  5
15C
100
AcDbEntity
  8
transparente
  6
ByLayer
 62
  256
370
   -1
100
AcDbLine
 10
310.00218
 20
31.00096
 11
307.00244
 21
31.00096
  0
LINE
  5
15D
100
AcDbEntity
  8
transparente
  6
ByLayer
 62
  256
370
   -1
100
AcDbLine
 10
307.00244
 20
31.00096
 11
307.00244
 21
55.99964
  0
LINE
  5
15E
100
AcDbEntity
  8
transparente
  6
ByLayer
 62
  256
370
   -1
100
AcDbLine
 10
307.00244
 20
55.99964
 11
256.00178
 21
55.99964
  0
LINE
  5
15F
100
AcDbEntity
  8
transparente
  6
ByLayer
 62
  256
370
   -1
100
AcDbLine
 10
256.00178
 20
55.99964
 11
256.00178
 21
34.99892
  0
LINE
  5
160
100
AcDbEntity
  8
transparente
  6
ByLayer
 62
  256
370
   -1
100
AcDbLine
 10
256.00178
 20
34.99892
 11
253.00204
 21
34.99892
  0
LINE
  5
161
100
AcDbEntity
  8
transparente
  6
ByLayer
 62
  256
370
   -1
100
AcDbLine
 10
253.00204
 20
34.99892
 11
253.00204
 21
24.00072
  0
LINE
  5
162
100
AcDbEntity
  8
transparente
  6
ByLayer
 62
  256
370
   -1
100
AcDbLine
 10
253.00204
 20
24.00072
 11
256.00178
 21
24.00072
  0
LINE
  5
163
100
AcDbEntity
  8
transparente
  6
ByLayer
 62
  256
370
   -1
100
AcDbLine
 10
256.00178
 20
24.00072
 11
256.00178
 21
5.99974
  0
LINE
  5
164
100
AcDbEntity
  8
transparente
  6
ByLayer
 62
  256
370
   -1
100
AcDbLine
 10
256.00178
 20
5.99974
 11
276.00174
 21
5.99974
  0
LINE
  5
165
100
AcDbEntity
  8
transparente
  6
ByLayer
 62
  256
370
   -1
100
AcDbLine
 10
276.00174
 20
5.99974
 11
276.00174
 21
3
  0
LINE
  5
166
100
AcDbEntity
  8
transparente
  6
ByLayer
 62
  256
370
   -1
100
AcDbLine
 10
276.00174
 20
3
 11
287.00248
 21
3
  0
LINE
  5
167
100
AcDbEntity
  8
transparente
  6
ByLayer
 62
  256
370
   -1
100
AcDbLine
 10
287.00248
 20
3
 11
287.00248
 21
5.99974
  0
LINE
  5
168
100
AcDbEntity
  8
transparente
  6
ByLayer
 62
  256
370
   -1
100
AcDbLine
 10
0
 20
111.99928
 11
0
 21
90.99856
  0
LINE
  5
169
100
AcDbEntity
  8
transparente
  6
ByLayer
 62
  256
370
   -1
100
AcDbLine
 10
0
 20
90.99856
 11
3.00228
 21
90.99856
  0
LINE
  5
16A
100
AcDbEntity
  8
transparente
  6
ByLayer
 62
  256
370
   -1
100
AcDbLine
 10
3.00228
 20
90.99856
 11
3.00228
 21
80.00036
  0
LINE
  5
16B
100
AcDbEntity
  8
transparente
  6
ByLayer
 62
  256
370
   -1
100
AcDbLine
 10
3.00228
 20
80.00036
 11
0
 21
80.00036
  0
LINE
  5
16C
100
AcDbEntity
  8
transparente
  6
ByLayer
 62
  256
370
   -1
100
AcDbLine
 10
0
 20
80.00036
 11
0
 21
58.99964
  0
LINE
  5
16D
100
AcDbEntity
  8
transparente
  6
ByLayer
 62
  256
370
   -1
100
AcDbLine
 10
0
 20
58.99964
 11
20.50034
 21
58.99964
  0
LINE
  5
16E
100
AcDbEntity
  8
transparente
  6
ByLayer
 62
  256
370
   -1
100
AcDbLine
 10
20.50034
 20
58.99964
 11
20.50034
 21
61.99938
  0
LINE
  5
16F
100
AcDbEntity
  8
transparente
  6
ByLayer
 62
  256
370
   -1
100
AcDbLine
 10
20.50034
 20
61.99938
 11
31.50108
 21
61.99938
  0
LINE
  5
170
100
AcDbEntity
  8
transparente
  6
ByLayer
 62
  256
370
   -1
100
AcDbLine
 10
31.50108
 20
61.99938
 11
31.50108
 21
58.99964
  0
LINE
  5
171
100
AcDbEntity
  8
transparente
  6
ByLayer
 62
  256
370
   -1
100
AcDbLine
 10
31.50108
 20
58.99964
 11
42.50182
 21
58.99964
  0
LINE
  5
172
100
AcDbEntity
  8
transparente
  6
ByLayer
 62
  256
370
   -1
100
AcDbLine
 10
42.50182
 20
58.99964
 11
42.50182
 21
61.99938
  0
LINE
  5
173
100
AcDbEntity
  8
transparente
  6
ByLayer
 62
  256
370
   -1
100
AcDbLine
 10
42.50182
 20
61.99938
 11
53.50002
 21
61.99938
  0
LINE
  5
174
100
AcDbEntity
  8
transparente
  6
ByLayer
 62
  256
370
   -1
100
AcDbLine
 10
53.50002
 20
61.99938
 11
53.50002
 21
58.99964
  0
LINE
  5
175
100
AcDbEntity
  8
transparente
  6
ByLayer
 62
  256
370
   -1
100
AcDbLine
 10
53.50002
 20
58.99964
 11
64.50076
 21
58.99964
  0
LINE
  5
176
100
AcDbEntity
  8
transparente
  6
ByLayer
 62
  256
370
   -1
100
AcDbLine
 10
64.50076
 20
58.99964
 11
64.50076
 21
61.99938
  0
LINE
  5
177
100
AcDbEntity
  8
transparente
  6
ByLayer
 62
  256
370
   -1
100
AcDbLine
 10
64.50076
 20
61.99938
 11
75.50149999999999
 21
61.99938
  0
LINE
  5
178
100
AcDbEntity
  8
transparente
  6
ByLayer
 62
  256
370
   -1
100
AcDbLine
 10
75.50149999999999
 20
61.99938
 11
75.50149999999999
 21
58.99964
  0
LINE
  5
179
100
AcDbEntity
  8
transparente
  6
ByLayer
 62
  256
370
   -1
100
AcDbLine
 10
75.50149999999999
 20
58.99964
 11
86.50224
 21
58.99964
  0
LINE
  5
17A
100
AcDbEntity
  8
transparente
  6
ByLayer
 62
  256
370
   -1
100
AcDbLine
 10
86.50224
 20
58.99964
 11
86.50224
 21
61.99938
  0
LINE
  5
17B
100
AcDbEntity
  8
transparente
  6
ByLayer
 62
  256
370
   -1
100
AcDbLine
 10
86.50224
 20
61.99938
 11
97.50044
 21
61.99938
  0
LINE
  5
17C
100
AcDbEntity
  8
transparente
  6
ByLayer
 62
  256
370
   -1
100
AcDbLine
 10
97.50044
 20
61.99938
 11
97.50044
 21
58.99964
  0
LINE
  5
17D
100
AcDbEntity
  8
transparente
  6
ByLayer
 62
  256
370
   -1
100
AcDbLine
 10
97.50044
 20
58.99964
 11
108.50118
 21
58.99964
  0
LINE
  5
17E
100
AcDbEntity
  8
transparente
  6
ByLayer
 62
  256
370
   -1
100
AcDbLine
 10
108.50118
 20
58.99964
 11
108.50118
 21
61.99938
  0
LINE
  5
17F
100
AcDbEntity
  8
transparente
  6
ByLayer
 62
  256
370
   -1
100
AcDbLine
 10
108.50118
 20
61.99938
 11
119.50192
 21
61.99938
  0
LINE
  5
180
100
AcDbEntity
  8
transparente
  6
ByLayer
 62
  256
370
   -1
100
AcDbLine
 10
119.50192
 20
61.99938
 11
119.50192
 21
58.99964
  0
LINE
  5
181
100
AcDbEntity
  8
transparente
  6
ByLayer
 62
  256
370
   -1
100
AcDbLine
 10
119.50192
 20
58.99964
 11
130.50012
 21
58.99964
  0
LINE
  5
182
100
AcDbEntity
  8
transparente
  6
ByLayer
 62
  256
370
   -1
100
AcDbLine
 10
130.50012
 20
58.99964
 11
130.50012
 21
61.99938
  0
LINE
  5
183
100
AcDbEntity
  8
transparente
  6
ByLayer
 62
  256
370
   -1
100
AcDbLine
 10
130.50012
 20
61.99938
 11
141.50086
 21
61.99938
  0
LINE
  5
184
100
AcDbEntity
  8
transparente
  6
ByLayer
 62
  256
370
   -1
100
AcDbLine
 10
141.50086
 20
61.99938
 11
141.50086
 21
58.99964
  0
LINE
  5
185
100
AcDbEntity
  8
transparente
  6
ByLayer
 62
  256
370
   -1
100
AcDbLine
 10
141.50086
 20
58.99964
 11
152.5016
 21
58.99964
  0
LINE
  5
186
100
AcDbEntity
  8
transparente
  6
ByLayer
 62
  256
370
   -1
100
AcDbLine
 10
152.5016
 20
58.99964
 11
152.5016
 21
61.99938
  0
LINE
  5
187
100
AcDbEntity
  8
transparente
  6
ByLayer
 62
  256
370
   -1
100
AcDbLine
 10
152.5016
 20
61.99938
 11
163.4998
 21
61.99938
  0
LINE
  5
188
100
AcDbEntity
  8
transparente
  6
ByLayer
 62
  256
370
   -1
100
AcDbLine
 10
163.4998
 20
61.99938
 11
163.4998
 21
58.99964
  0
LINE
  5
189
100
AcDbEntity
  8
transparente
  6
ByLayer
 62
  256
370
   -1
100
AcDbLine
 10
163.4998
 20
58.99964
 11
174.50054
 21
58.99964
  0
LINE
  5
18A
100
AcDbEntity
  8
transparente
  6
ByLayer
 62
  256
370
   -1
100
AcDbLine
 10
174.50054
 20
58.99964
 11
174.50054
 21
61.99938
  0
LINE
  5
18B
100
AcDbEntity
  8
transparente
  6
ByLayer
 62
  256
370
   -1
100
AcDbLine
 10
174.50054
 20
61.99938
 11
185.50128
 21
61.99938
  0
LINE
  5
18C
100
AcDbEntity
  8
transparente
  6
ByLayer
 62
  256
370
   -1
100
AcDbLine
 10
185.50128
 20
61.99938
 11
185.50128
 21
58.99964
  0
LINE
  5
18D
100
AcDbEntity
  8
transparente
  6
ByLayer
 62
  256
370
   -1
100
AcDbLine
 10
185.50128
 20
58.99964
 11
196.50202
 21
58.99964
  0
LINE
  5
18E
100
AcDbEntity
  8
transparente
  6
ByLayer
 62
  256
370
   -1
100
AcDbLine
 10
196.50202
 20
58.99964
 11
196.50202
 21
61.99938
  0
LINE
  5
18F
100
AcDbEntity
  8
transparente
  6
ByLayer
 62
  256
370
   -1
100
AcDbLine
 10
196.50202
 20
61.99938
 11
207.50022
 21
61.99938
  0
LINE
  5
190
100
AcDbEntity
  8
transparente
  6
ByLayer
 62
  256
370
   -1
100
AcDbLine
 10
207.50022
 20
61.99938
 11
207.50022
 21
58.99964
  0
LINE
  5
191
100
AcDbEntity
  8
transparente
  6
ByLayer
 62
  256
370
   -1
100
AcDbLine
 10
207.50022
 20
58.99964
 11
218.50096
 21
58.99964
  0
LINE
  5
192
100
AcDbEntity
  8
transparente
  6
ByLayer
 62
  256
370
   -1
100
AcDbLine
 10
218.50096
 20
58.99964
 11
218.50096
 21
61.99938
  0
LINE
  5
193
100
AcDbEntity
  8
transparente
  6
ByLayer
 62
  256
370
   -1
100
AcDbLine
 10
218.50096
 20
61.99938
 11
229.5017
 21
61.99938
  0
LINE
  5
194
100
AcDbEntity
  8
transparente
  6
ByLayer
 62
  256
370
   -1
100
AcDbLine
 10
229.5017
 20
61.99938
 11
229.5017
 21
58.99964
  0
LINE
  5
195
100
AcDbEntity
  8
transparente
  6
ByLayer
 62
  256
370
   -1
100
AcDbLine
 10
229.5017
 20
58.99964
 11
250.00204
 21
58.99964
  0
LINE
  5
196
100
AcDbEntity
  8
transparente
  6
ByLayer
 62
  256
370
   -1
100
AcDbLine
 10
250.00204
 20
58.99964
 11
250.00204
 21
80.00036
  0
LINE
  5
197
100
AcDbEntity
  8
transparente
  6
ByLayer
 62
  256
370
   -1
100
AcDbLine
 10
250.00204
 20
80.00036
 11
246.99976
 21
80.00036
  0
LINE
  5
198
100
AcDbEntity
  8
transparente
  6
ByLayer
 62
  256
370
   -1
100
AcDbLine
 10
246.99976
 20
80.00036
 11
246.99976
 21
90.99856
  0
LINE
  5
199
100
AcDbEntity
  8
transparente
  6
ByLayer
 62
  256
370
   -1
100
AcDbLine
 10
246.99976
 20
90.99856
 11
250.00204
 21
90.99856
  0
LINE
  5
19A
100
AcDbEntity
  8
transparente
  6
ByLayer
 62
  256
370
   -1
100
AcDbLine
 10
250.00204
 20
90.99856
 11
250.00204
 21
111.99928
  0
LINE
  5
19B
100
AcDbEntity
  8
transparente
  6
ByLayer
 62
  256
370
   -1
100
AcDbLine
 10
250.00204
 20
111.99928
 11
0
 21
111.99928
  0
LINE
  5
19C
100
AcDbEntity
  8
transparente
  6
ByLayer
 62
  256
370
   -1
100
AcDbLine
 10
287.00248
 20
61.99938
 11
298.00322
 21
61.99938
  0
LINE
  5
19D
100
AcDbEntity
  8
transparente
  6
ByLayer
 62
  256
370
   -1
100
AcDbLine
 10
298.00322
 20
61.99938
 11
298.00322
 21
58.99964
  0
LINE
  5
19E
100
AcDbEntity
  8
transparente
  6
ByLayer
 62
  256
370
   -1
100
AcDbLine
 10
298.00322
 20
58.99964
 11
309.00142
 21
58.99964
  0
LINE
  5
19F
100
AcDbEntity
  8
transparente
  6
ByLayer
 62
  256
370
   -1
100
AcDbLine
 10
309.00142
 20
58.99964
 11
309.00142
 21
61.99938
  0
LINE
  5
1A0
100
AcDbEntity
  8
transparente
  6
ByLayer
 62
  256
370
   -1
100
AcDbLine
 10
309.00142
 20
61.99938
 11
320.00216
 21
61.99938
  0
LINE
  5
1A1
100
AcDbEntity
  8
transparente
  6
ByLayer
 62
  256
370
   -1
100
AcDbLine
 10
320.00216
 20
61.99938
 11
320.00216
 21
58.99964
  0
LINE
  5
1A2
100
AcDbEntity
  8
transparente
  6
ByLayer
 62
  256
370
   -1
100
AcDbLine
 10
320.00216
 20
58.99964
 11
331.0029
 21
58.99964
  0
LINE
  5
1A3
100
AcDbEntity
  8
transparente
  6
ByLayer
 62
  256
370
   -1
100
AcDbLine
 10
331.0029
 20
58.99964
 11
331.0029
 21
61.99938
  0
LINE
  5
1A4
100
AcDbEntity
  8
transparente
  6
ByLayer
 62
  256
370
   -1
100
AcDbLine
 10
331.0029
 20
61.99938
 11
342.0011
 21
61.99938
  0
LINE
  5
1A5
100
AcDbEntity
  8
transparente
  6
ByLayer
 62
  256
370
   -1
100
AcDbLine
 10
342.0011
 20
61.99938
 11
342.0011
 21
58.99964
  0
LINE
  5
1A6
100
AcDbEntity
  8
transparente
  6
ByLayer
 62
  256
370
   -1
100
AcDbLine
 10
342.0011
 20
58.99964
 11
353.00184
 21
58.99964
  0
LINE
  5
1A7
100
AcDbEntity
  8
transparente
  6
ByLayer
 62
  256
370
   -1
100
AcDbLine
 10
353.00184
 20
58.99964
 11
353.00184
 21
61.99938
  0
LINE
  5
1A8
100
AcDbEntity
  8
transparente
  6
ByLayer
 62
  256
370
   -1
100
AcDbLine
 10
353.00184
 20
61.99938
 11
364.00258
 21
61.99938
  0
LINE
  5
1A9
100
AcDbEntity
  8
transparente
  6
ByLayer
 62
  256
370
   -1
100
AcDbLine
 10
364.00258
 20
61.99938
 11
364.00258
 21
58.99964
  0
LINE
  5
1AA
100
AcDbEntity
  8
transparente
  6
ByLayer
 62
  256
370
   -1
100
AcDbLine
 10
364.00258
 20
58.99964
 11
375.00332
 21
58.99964
  0
LINE
  5
1AB
100
AcDbEntity
  8
transparente
  6
ByLayer
 62
  256
370
   -1
100
AcDbLine
 10
375.00332
 20
58.99964
 11
375.00332
 21
61.99938
  0
LINE
  5
1AC
100
AcDbEntity
  8
transparente
  6
ByLayer
 62
  256
370
   -1
100
AcDbLine
 10
375.00332
 20
61.99938
 11
386.00152
 21
61.99938
  0
LINE
  5
1AD
100
AcDbEntity
  8
transparente
  6
ByLayer
 62
  256
370
   -1
100
AcDbLine
 10
386.00152
 20
61.99938
 11
386.00152
 21
58.99964
  0
LINE
  5
1AE
100
AcDbEntity
  8
transparente
  6
ByLayer
 62
  256
370
   -1
100
AcDbLine
 10
386.00152
 20
58.99964
 11
397.00226
 21
58.99964
  0
LINE
  5
1AF
100
AcDbEntity
  8
transparente
  6
ByLayer
 62
  256
370
   -1
100
AcDbLine
 10
397.00226
 20
58.99964
 11
397.00226
 21
61.99938
  0
LINE
  5
1B0
100
AcDbEntity
  8
transparente
  6
ByLayer
 62
  256
370
   -1
100
AcDbLine
 10
397.00226
 20
61.99938
 11
408.003
 21
61.99938
  0
LINE
  5
1B1
100
AcDbEntity
  8
transparente
  6
ByLayer
 62
  256
370
   -1
100
AcDbLine
 10
408.003
 20
61.99938
 11
408.003
 21
58.99964
  0
LINE
  5
1B2
100
AcDbEntity
  8
transparente
  6
ByLayer
 62
  256
370
   -1
100
AcDbLine
 10
408.003
 20
58.99964
 11
419.0012
 21
58.99964
  0
LINE
  5
1B3
100
AcDbEntity
  8
transparente
  6
ByLayer
 62
  256
370
   -1
100
AcDbLine
 10
419.0012
 20
58.99964
 11
419.0012
 21
61.99938
  0
LINE
  5
1B4
100
AcDbEntity
  8
transparente
  6
ByLayer
 62
  256
370
   -1
100
AcDbLine
 10
419.0012
 20
61.99938
 11
430.00194
 21
61.99938
  0
LINE
  5
1B5
100
AcDbEntity
  8
transparente
  6
ByLayer
 62
  256
370
   -1
100
AcDbLine
 10
430.00194
 20
61.99938
 11
430.00194
 21
58.99964
  0
LINE
  5
1B6
100
AcDbEntity
  8
transparente
  6
ByLayer
 62
  256
370
   -1
100
AcDbLine
 10
430.00194
 20
58.99964
 11
441.00268
 21
58.99964
  0
LINE
  5
1B7
100
AcDbEntity
  8
transparente
  6
ByLayer
 62
  256
370
   -1
100
AcDbLine
 10
441.00268
 20
58.99964
 11
441.00268
 21
61.99938
  0
LINE
  5
1B8
100
AcDbEntity
  8
transparente
  6
ByLayer
 62
  256
370
   -1
100
AcDbLine
 10
441.00268
 20
61.99938
 11
452.00088
 21
61.99938
  0
LINE
  5
1B9
100
AcDbEntity
  8
transparente
  6
ByLayer
 62
  256
370
   -1
100
AcDbLine
 10
452.00088
 20
61.99938
 11
452.00088
 21
58.99964
  0
LINE
  5
1BA
100
AcDbEntity
  8
transparente
  6
ByLayer
 62
  256
370
   -1
100
AcDbLine
 10
452.00088
 20
58.99964
 11
463.00162
 21
58.99964
  0
LINE
  5
1BB
100
AcDbEntity
  8
transparente
  6
ByLayer
 62
  256
370
   -1
100
AcDbLine
 10
463.00162
 20
58.99964
 11
463.00162
 21
61.99938
  0
LINE
  5
1BC
100
AcDbEntity
  8
transparente
  6
ByLayer
 62
  256
370
   -1
100
AcDbLine
 10
463.00162
 20
61.99938
 11
474.00236
 21
61.99938
  0
LINE
  5
1BD
100
AcDbEntity
  8
transparente
  6
ByLayer
 62
  256
370
   -1
100
AcDbLine
 10
474.00236
 20
61.99938
 11
474.00236
 21
58.99964
  0
LINE
  5
1BE
100
AcDbEntity
  8
transparente
  6
ByLayer
 62
  256
370
   -1
100
AcDbLine
 10
474.00236
 20
58.99964
 11
485.0031
 21
58.99964
  0
LINE
  5
1BF
100
AcDbEntity
  8
transparente
  6
ByLayer
 62
  256
370
   -1
100
AcDbLine
 10
485.0031
 20
58.99964
 11
485.0031
 21
61.99938
  0
LINE
  5
1C0
100
AcDbEntity
  8
transparente
  6
ByLayer
 62
  256
370
   -1
100
AcDbLine
 10
485.0031
 20
61.99938
 11
496.0013
 21
61.99938
  0
LINE
  5
1C1
100
AcDbEntity
  8
transparente
  6
ByLayer
 62
  256
370
   -1
100
AcDbLine
 10
496.0013
 20
61.99938
 11
496.0013
 21
58.99964
  0
LINE
  5
1C2
100
AcDbEntity
  8
transparente
  6
ByLayer
 62
  256
370
   -1
100
AcDbLine
 10
496.0013
 20
58.99964
 11
507.00204
 21
58.99964
  0
LINE
  5
1C3
100
AcDbEntity
  8
transparente
  6
ByLayer
 62
  256
370
   -1
100
AcDbLine
 10
507.00204
 20
58.99964
 11
507.00204
 21
61.99938
  0
LINE
  5
1C4
100
AcDbEntity
  8
transparente
  6
ByLayer
 62
  256
370
   -1
100
AcDbLine
 10
507.00204
 20
61.99938
 11
518.00278
 21
61.99938
  0
LINE
  5
1C5
100
AcDbEntity
  8
transparente
  6
ByLayer
 62
  256
370
   -1
100
AcDbLine
 10
518.00278
 20
61.99938
 11
518.00278
 21
58.99964
  0
LINE
  5
1C6
100
AcDbEntity
  8
transparente
  6
ByLayer
 62
  256
370
   -1
100
AcDbLine
 10
518.00278
 20
58.99964
 11
529.00098
 21
58.99964
  0
LINE
  5
1C7
100
AcDbEntity
  8
transparente
  6
ByLayer
 62
  256
370
   -1
100
AcDbLine
 10
529.00098
 20
58.99964
 11
529.00098
 21
61.99938
  0
LINE
  5
1C8
100
AcDbEntity
  8
transparente
  6
ByLayer
 62
  256
370
   -1
100
AcDbLine
 10
529.00098
 20
61.99938
 11
540.00172
 21
61.99938
  0
LINE
  5
1C9
100
AcDbEntity
  8
transparente
  6
ByLayer
 62
  256
370
   -1
100
AcDbLine
 10
540.00172
 20
61.99938
 11
540.00172
 21
58.99964
  0
LINE
  5
1CA
100
AcDbEntity
  8
transparente
  6
ByLayer
 62
  256
370
   -1
100
AcDbLine
 10
540.00172
 20
58.99964
 11
551.00246
 21
58.99964
  0
LINE
  5
1CB
100
AcDbEntity
  8
transparente
  6
ByLayer
 62
  256
370
   -1
100
AcDbLine
 10
551.00246
 20
58.99964
 11
551.00246
 21
61.99938
  0
LINE
  5
1CC
100
AcDbEntity
  8
transparente
  6
ByLayer
 62
  256
370
   -1
100
AcDbLine
 10
551.00246
 20
61.99938
 11
571.00242
 21
61.99938
  0
LINE
  5
1CD
100
AcDbEntity
  8
transparente
  6
ByLayer
 62
  256
370
   -1
100
AcDbLine
 10
571.00242
 20
61.99938
 11
571.00242
 21
80.00036
  0
LINE
  5
1CE
100
AcDbEntity
  8
transparente
  6
ByLayer
 62
  256
370
   -1
100
AcDbLine
 10
571.00242
 20
80.00036
 11
574.00216
 21
80.00036
  0
LINE
  5
1CF
100
AcDbEntity
  8
transparente
  6
ByLayer
 62
  256
370
   -1
100
AcDbLine
 10
574.00216
 20
80.00036
 11
574.00216
 21
90.99856
  0
LINE
  5
1D0
100
AcDbEntity
  8
transparente
  6
ByLayer
 62
  256
370
   -1
100
AcDbLine
 10
574.00216
 20
90.99856
 11
571.00242
 21
90.99856
  0
LINE
  5
1D1
100
AcDbEntity
  8
transparente
  6
ByLayer
 62
  256
370
   -1
100
AcDbLine
 10
571.00242
 20
90.99856
 11
571.00242
 21
111.99928
  0
LINE
  5
1D2
100
AcDbEntity
  8
transparente
  6
ByLayer
 62
  256
370
   -1
100
AcDbLine
 10
571.00242
 20
111.99928
 11
520.00176
 21
111.99928
  0
LINE
  5
1D3
100
AcDbEntity
  8
transparente
  6
ByLayer
 62
  256
370
   -1
100
AcDbLine
 10
520.00176
 20
111.99928
 11
520.00176
 21
87.00060000000001
  0
LINE
  5
1D4
100
AcDbEntity
  8
transparente
  6
ByLayer
 62
  256
370
   -1
100
AcDbLine
 10
520.00176
 20
87.00060000000001
 11
517.00202
 21
87.00060000000001
  0
LINE
  5
1D5
100
AcDbEntity
  8
transparente
  6
ByLayer
 62
  256
370
   -1
100
AcDbLine
 10
517.00202
 20
87.00060000000001
 11
517.00202
 21
111.99928
  0
LINE
  5
1D6
100
AcDbEntity
  8
transparente
  6
ByLayer
 62
  256
370
   -1
100
AcDbLine
 10
517.00202
 20
111.99928
 11
467.5025
 21
111.99928
  0
LINE
  5
1D7
100
AcDbEntity
  8
transparente
  6
ByLayer
 62
  256
370
   -1
100
AcDbLine
 10
467.5025
 20
111.99928
 11
467.5025
 21
87.00060000000001
  0
LINE
  5
1D8
100
AcDbEntity
  8
transparente
  6
ByLayer
 62
  256
370
   -1
100
AcDbLine
 10
467.5025
 20
87.00060000000001
 11
464.50276
 21
87.00060000000001
  0
LINE
  5
1D9
100
AcDbEntity
  8
transparente
  6
ByLayer
 62
  256
370
   -1
100
AcDbLine
 10
464.50276
 20
87.00060000000001
 11
464.50276
 21
111.99928
  0
LINE
  5
1DA
100
AcDbEntity
  8
transparente
  6
ByLayer
 62
  256
370
   -1
100
AcDbLine
 10
464.50276
 20
111.99928
 11
415.00324
 21
111.99928
  0
LINE
  5
1DB
100
AcDbEntity
  8
transparente
  6
ByLayer
 62
  256
370
   -1
100
AcDbLine
 10
415.00324
 20
111.99928
 11
415.00324
 21
87.00060000000001
  0
LINE
  5
1DC
100
AcDbEntity
  8
transparente
  6
ByLayer
 62
  256
370
   -1
100
AcDbLine
 10
415.00324
 20
87.00060000000001
 11
412.00096
 21
87.00060000000001
  0
LINE
  5
1DD
100
AcDbEntity
  8
transparente
  6
ByLayer
 62
  256
370
   -1
100
AcDbLine
 10
412.00096
 20
87.00060000000001
 11
412.00096
 21
111.99928
  0
LINE
  5
1DE
100
AcDbEntity
  8
transparente
  6
ByLayer
 62
  256
370
   -1
100
AcDbLine
 10
412.00096
 20
111.99928
 11
362.50144
 21
111.99928
  0
LINE
  5
1DF
100
AcDbEntity
  8
transparente
  6
ByLayer
 62
  256
370
   -1
100
AcDbLine
 10
362.50144
 20
111.99928
 11
362.50144
 21
87.00060000000001
  0
LINE
  5
1E0
100
AcDbEntity
  8
transparente
  6
ByLayer
 62
  256
370
   -1
100
AcDbLine
 10
362.50144
 20
87.00060000000001
 11
359.5017
 21
87.00060000000001
  0
LINE
  5
1E1
100
AcDbEntity
  8
transparente
  6
ByLayer
 62
  256
370
   -1
100
AcDbLine
 10
359.5017
 20
87.00060000000001
 11
359.5017
 21
111.99928
  0
LINE
  5
1E2
100
AcDbEntity
  8
transparente
  6
ByLayer
 62
  256
370
   -1
100
AcDbLine
 10
359.5017
 20
111.99928
 11
310.00218
 21
111.99928
  0
LINE
  5
1E3
100
AcDbEntity
  8
transparente
  6
ByLayer
 62
  256
370
   -1
100
AcDbLine
 10
310.00218
 20
111.99928
 11
310.00218
 21
87.00060000000001
  0
LINE
  5
1E4
100
AcDbEntity
  8
transparente
  6
ByLayer
 62
  256
370
   -1
100
AcDbLine
 10
310.00218
 20
87.00060000000001
 11
307.00244
 21
87.00060000000001
  0
LINE
  5
1E5
100
AcDbEntity
  8
transparente
  6
ByLayer
 62
  256
370
   -1
100
AcDbLine
 10
307.00244
 20
87.00060000000001
 11
307.00244
 21
111.99928
  0
LINE
  5
1E6
100
AcDbEntity
  8
transparente
  6
ByLayer
 62
  256
370
   -1
100
AcDbLine
 10
307.00244
 20
111.99928
 11
256.00178
 21
111.99928
  0
LINE
  5
1E7
100
AcDbEntity
  8
transparente
  6
ByLayer
 62
  256
370
   -1
100
AcDbLine
 10
256.00178
 20
111.99928
 11
256.00178
 21
90.99856
  0
LINE
  5
1E8
100
AcDbEntity
  8
transparente
  6
ByLayer
 62
  256
370
   -1
100
AcDbLine
 10
256.00178
 20
90.99856
 11
253.00204
 21
90.99856
  0
LINE
  5
1E9
100
AcDbEntity
  8
transparente
  6
ByLayer
 62
  256
370
   -1
100
AcDbLine
 10
253.00204
 20
90.99856
 11
253.00204
 21
80.00036
  0
LINE
  5
1EA
100
AcDbEntity
  8
transparente
  6
ByLayer
 62
  256
370
   -1
100
AcDbLine
 10
253.00204
 20
80.00036
 11
256.00178
 21
80.00036
  0
LINE
  5
1EB
100
AcDbEntity
  8
transparente
  6
ByLayer
 62
  256
370
   -1
100
AcDbLine
 10
256.00178
 20
80.00036
 11
256.00178
 21
61.99938
  0
LINE
  5
1EC
100
AcDbEntity
  8
transparente
  6
ByLayer
 62
  256
370
   -1
100
AcDbLine
 10
256.00178
 20
61.99938
 11
276.00174
 21
61.99938
  0
LINE
  5
1ED
100
AcDbEntity
  8
transparente
  6
ByLayer
 62
  256
370
   -1
100
AcDbLine
 10
276.00174
 20
61.99938
 11
276.00174
 21
58.99964
  0
LINE
  5
1EE
100
AcDbEntity
  8
transparente
  6
ByLayer
 62
  256
370
   -1
100
AcDbLine
 10
276.00174
 20
58.99964
 11
287.00248
 21
58.99964
  0
LINE
  5
1EF
100
AcDbEntity
  8
transparente
  6
ByLayer
 62
  256
370
   -1
100
AcDbLine
 10
287.00248
 20
58.99964
 11
287.00248
 21
61.99938
  0
LINE
  5
1F0
100
AcDbEntity
  8
transparente
  6
ByLayer
 62
  256
370
   -1
100
AcDbLine
 10
0
 20
165.00172
 11
0
 21
140.0005
  0
LINE
  5
1F1
100
AcDbEntity
  8
transparente
  6
ByLayer
 62
  256
370
   -1
100
AcDbLine
 10
0
 20
140.0005
 11
3.00228
 21
140.0005
  0
LINE
  5
1F2
100
AcDbEntity
  8
transparente
  6
ByLayer
 62
  256
370
   -1
100
AcDbLine
 10
3.00228
 20
140.0005
 11
3.00228
 21
114.99928
  0
LINE
  5
1F3
100
AcDbEntity
  8
transparente
  6
ByLayer
 62
  256
370
   -1
100
AcDbLine
 10
3.00228
 20
114.99928
 11
246.99976
 21
114.99928
  0
LINE
  5
1F4
100
AcDbEntity
  8
transparente
  6
ByLayer
 62
  256
370
   -1
100
AcDbLine
 10
246.99976
 20
114.99928
 11
246.99976
 21
140.0005
  0
LINE
  5
1F5
100
AcDbEntity
  8
transparente
  6
ByLayer
 62
  256
370
   -1
100
AcDbLine
 10
246.99976
 20
140.0005
 11
250.00204
 21
140.0005
  0
LINE
  5
1F6
100
AcDbEntity
  8
transparente
  6
ByLayer
 62
  256
370
   -1
100
AcDbLine
 10
250.00204
 20
140.0005
 11
250.00204
 21
165.00172
  0
LINE
  5
1F7
100
AcDbEntity
  8
transparente
  6
ByLayer
 62
  256
370
   -1
100
AcDbLine
 10
250.00204
 20
165.00172
 11
0
 21
165.00172
  0
LINE
  5
1F8
100
AcDbEntity
  8
transparente
  6
ByLayer
 62
  256
370
   -1
100
AcDbLine
 10
0
 20
218.00416
 11
0
 21
193.00294
  0
LINE
  5
1F9
100
AcDbEntity
  8
transparente
  6
ByLayer
 62
  256
370
   -1
100
AcDbLine
 10
0
 20
193.00294
 11
3.00228
 21
193.00294
  0
LINE
  5
1FA
100
AcDbEntity
  8
transparente
  6
ByLayer
 62
  256
370
   -1
100
AcDbLine
 10
3.00228
 20
193.00294
 11
3.00228
 21
168.00172
  0
LINE
  5
1FB
100
AcDbEntity
  8
transparente
  6
ByLayer
 62
  256
370
   -1
100
AcDbLine
 10
3.00228
 20
168.00172
 11
246.99976
 21
168.00172
  0
LINE
  5
1FC
100
AcDbEntity
  8
transparente
  6
ByLayer
 62
  256
370
   -1
100
AcDbLine
 10
246.99976
 20
168.00172
 11
246.99976
 21
193.00294
  0
LINE
  5
1FD
100
AcDbEntity
  8
transparente
  6
ByLayer
 62
  256
370
   -1
100
AcDbLine
 10
246.99976
 20
193.00294
 11
250.00204
 21
193.00294
  0
LINE
  5
1FE
100
AcDbEntity
  8
transparente
  6
ByLayer
 62
  256
370
   -1
100
AcDbLine
 10
250.00204
 20
193.00294
 11
250.00204
 21
218.00416
  0
LINE
  5
1FF
100
AcDbEntity
  8
transparente
  6
ByLayer
 62
  256
370
   -1
100
AcDbLine
 10
250.00204
 20
218.00416
 11
0
 21
218.00416
  0
LINE
  5
200
100
AcDbEntity
  8
transparente
  6
ByLayer
 62
  256
370
   -1
100
AcDbLine
 10
0
 20
271.0066
 11
0
 21
246.00538
  0
LINE
  5
201
100
AcDbEntity
  8
transparente
  6
ByLayer
 62
  256
370
   -1
100
AcDbLine
 10
0
 20
246.00538
 11
3.00228
 21
246.00538
  0
LINE
  5
202
100
AcDbEntity
  8
transparente
  6
ByLayer
 62
  256
370
   -1
100
AcDbLine
 10
3.00228
 20
246.00538
 11
3.00228
 21
221.00416
  0
LINE
  5
203
100
AcDbEntity
  8
transparente
  6
ByLayer
 62
  256
370
   -1
100
AcDbLine
 10
3.00228
 20
221.00416
 11
246.99976
 21
221.00416
  0
LINE
  5
204
100
AcDbEntity
  8
transparente
  6
ByLayer
 62
  256
370
   -1
100
AcDbLine
 10
246.99976
 20
221.00416
 11
246.99976
 21
246.00538
  0
LINE
  5
205
100
AcDbEntity
  8
transparente
  6
ByLayer
 62
  256
370
   -1
100
AcDbLine
 10
246.99976
 20
246.00538
 11
250.00204
 21
246.00538
  0
LINE
  5
206
100
AcDbEntity
  8
transparente
  6
ByLayer
 62
  256
370
   -1
100
AcDbLine
 10
250.00204
 20
246.00538
 11
250.00204
 21
271.0066
  0
LINE
  5
207
100
AcDbEntity
  8
transparente
  6
ByLayer
 62
  256
370
   -1
100
AcDbLine
 10
250.00204
 20
271.0066
 11
0
 21
271.0066
  0
LINE
  5
208
100
AcDbEntity
  8
transparente
  6
ByLayer
 62
  256
370
   -1
100
AcDbLine
 10
0
 20
324.00904
 11
0
 21
299.00782
  0
LINE
  5
209
100
AcDbEntity
  8
transparente
  6
ByLayer
 62
  256
370
   -1
100
AcDbLine
 10
0
 20
299.00782
 11
3.00228
 21
299.00782
  0
LINE
  5
20A
100
AcDbEntity
  8
transparente
  6
ByLayer
 62
  256
370
   -1
100
AcDbLine
 10
3.00228
 20
299.00782
 11
3.00228
 21
274.0066
  0
LINE
  5
20B
100
AcDbEntity
  8
transparente
  6
ByLayer
 62
  256
370
   -1
100
AcDbLine
 10
3.00228
 20
274.0066
 11
246.99976
 21
274.0066
  0
LINE
  5
20C
100
AcDbEntity
  8
transparente
  6
ByLayer
 62
  256
370
   -1
100
AcDbLine
 10
246.99976
 20
274.0066
 11
246.99976
 21
299.00782
  0
LINE
  5
20D
100
AcDbEntity
  8
transparente
  6
ByLayer
 62
  256
370
   -1
100
AcDbLine
 10
246.99976
 20
299.00782
 11
250.00204
 21
299.00782
  0
LINE
  5
20E
100
AcDbEntity
  8
transparente
  6
ByLayer
 62
  256
370
   -1
100
AcDbLine
 10
250.00204
 20
299.00782
 11
250.00204
 21
324.00904
  0
LINE
  5
20F
100
AcDbEntity
  8
transparente
  6
ByLayer
 62
  256
370
   -1
100
AcDbLine
 10
250.00204
 20
324.00904
 11
0
 21
324.00904
  0
LINE
  5
210
100
AcDbEntity
  8
transparente
  6
ByLayer
 62
  256
370
   -1
100
AcDbLine
 10
0
 20
377.01148
 11
0
 21
352.01026
  0
LINE
  5
211
100
AcDbEntity
  8
transparente
  6
ByLayer
 62
  256
370
   -1
100
AcDbLine
 10
0
 20
352.01026
 11
3.00228
 21
352.01026
  0
LINE
  5
212
100
AcDbEntity
  8
transparente
  6
ByLayer
 62
  256
370
   -1
100
AcDbLine
 10
3.00228
 20
352.01026
 11
3.00228
 21
327.00904
  0
LINE
  5
213
100
AcDbEntity
  8
transparente
  6
ByLayer
 62
  256
370
   -1
100
AcDbLine
 10
3.00228
 20
327.00904
 11
246.99976
 21
327.00904
  0
LINE
  5
214
100
AcDbEntity
  8
transparente
  6
ByLayer
 62
  256
370
   -1
100
AcDbLine
 10
246.99976
 20
327.00904
 11
246.99976
 21
352.01026
  0
LINE
  5
215
100
AcDbEntity
  8
transparente
  6
ByLayer
 62
  256
370
   -1
100
AcDbLine
 10
246.99976
 20
352.01026
 11
250.00204
 21
352.01026
  0
LINE
  5
216
100
AcDbEntity
  8
transparente
  6
ByLayer
 62
  256
370
   -1
100
AcDbLine
 10
250.00204
 20
352.01026
 11
250.00204
 21
377.01148
  0
LINE
  5
217
100
AcDbEntity
  8
transparente
  6
ByLayer
 62
  256
370
   -1
100
AcDbLine
 10
250.00204
 20
377.01148
 11
0
 21
377.01148
  0
LINE
  5
218
100
AcDbEntity
  8
0
  6
ByLayer
 62
  256
370
   -1
100
AcDbLine
 10
763.00255
 20
253.2500000000659
 11
763.00255
 21
253.2500000000659
  0
LINE
  5
219
100
AcDbEntity
  8
0
  6
ByLayer
 62
  256
370
   -1
100
AcDbLine
 10
763.00255
 20
253.2500000000659
 11
763.00255
 21
253.2500000000659
  0
LINE
  5
21A
100
AcDbEntity
  8
0
  6
ByLayer
 62
  256
370
   -1
100
AcDbLine
 10
763.00255
 20
253.2500000000659
 11
763.00255
 21
253.2500000000659
  0
LINE
  5
21B
100
AcDbEntity
  8
0
  6
ByLayer
 62
  256
370
   -1
100
AcDbLine
 10
763.00255
 20
251.2500000000659
 11
763.00255
 21
251.2500000000659
  0
LINE
  5
21C
100
AcDbEntity
  8
0
  6
ByLayer
 62
  256
370
   -1
100
AcDbLine
 10
763.00255
 20
251.2500000000659
 11
763.00255
 21
251.2500000000659
  0
ARC
  5
21D
100
AcDbEntity
  8
0
  6
ByLayer
 62
  256
370
   -1
100
AcDbCircle
 10
763.00255
 20
256.2500000000659
 40
3
100
AcDbArc
 50
359.9999999999989
 51
180.0002544768717
  0
ARC
  5
21E
100
AcDbEntity
  8
0
  6
ByLayer
 62
  256
370
   -1
100
AcDbCircle
 10
763.00255
 20
246.2500000000659
 40
5
100
AcDbArc
 50
126.8701521225274
 51
53.13010235434292
  0
LINE
  5
21F
100
AcDbEntity
  8
0
  6
ByLayer
 62
  256
370
   -1
100
AcDbLine
 10
760.0025500000002
 20
250.2500000000258
 11
760.00255
 21
256.2500000000659
  0
LINE
  5
220
100
AcDbEntity
  8
0
  6
ByLayer
 62
  256
370
   -1
100
AcDbLine
 10
766.00255
 20
250.2500000000923
 11
766.00255
 21
256.2500000000659
  0
LINE
  5
221
100
AcDbEntity
  8
0
  6
ByLayer
 62
  256
370
   -1
100
AcDbLine
 10
641.0038100000002
 20
253.2500000000659
 11
641.0038100000002
 21
253.2500000000659
  0
LINE
  5
222
100
AcDbEntity
  8
0
  6
ByLayer
 62
  256
370
   -1
100
AcDbLine
 10
641.0038100000002
 20
253.2500000000659
 11
641.0038100000002
 21
253.2500000000659
  0
LINE
  5
223
100
AcDbEntity
  8
0
  6
ByLayer
 62
  256
370
   -1
100
AcDbLine
 10
641.0038100000002
 20
253.2500000000659
 11
641.0038100000002
 21
253.2500000000659
  0
LINE
  5
224
100
AcDbEntity
  8
0
  6
ByLayer
 62
  256
370
   -1
100
AcDbLine
 10
641.0038100000002
 20
251.2500000000659
 11
641.0038100000002
 21
251.2500000000659
  0
LINE
  5
225
100
AcDbEntity
  8
0
  6
ByLayer
 62
  256
370
   -1
100
AcDbLine
 10
641.0038100000002
 20
251.2500000000659
 11
641.0038100000002
 21
251.2500000000659
  0
ARC
  5
226
100
AcDbEntity
  8
0
  6
ByLayer
 62
  256
370
   -1
100
AcDbCircle
 10
641.0038100000002
 20
256.2500000000659
 40
3
100
AcDbArc
 50
359.9999999999989
 51
180.0002544768717
  0
ARC
  5
227
100
AcDbEntity
  8
0
  6
ByLayer
 62
  256
370
   -1
100
AcDbCircle
 10
641.0038100000002
 20
246.2500000000659
 40
5
100
AcDbArc
 50
126.8701521225274
 51
53.13010235434292
  0
LINE
  5
228
100
AcDbEntity
  8
0
  6
ByLayer
 62
  256
370
   -1
100
AcDbLine
 10
638.0038100000003
 20
250.2500000000258
 11
638.0038100000002
 21
256.2500000000659
  0
LINE
  5
229
100
AcDbEntity
  8
0
  6
ByLayer
 62
  256
370
   -1
100
AcDbLine
 10
644.0038100000002
 20
250.2500000000923
 11
644.0038100000002
 21
256.2500000000659
  0
LINE
  5
22A
100
AcDbEntity
  8
transparente
  6
ByLayer
 62
  256
370
   -1
100
AcDbLine
 10
1.247960000096811
 20
30.49891999999942
 11
4.250240000096795
 21
30.49891999999942
  0
LINE
  5
22B
100
AcDbEntity
  8
transparente
  6
ByLayer
 62
  256
370
   -1
100
AcDbLine
 10
4.250240000096795
 20
30.49891999999942
 11
4.250240000096795
 21
19.50071999999942
  0
LINE
  5
22C
100
AcDbEntity
  8
transparente
  6
ByLayer
 62
  256
370
   -1
100
AcDbLine
 10
4.250240000096795
 20
19.50071999999942
 11
1.247960000096811
 21
19.50071999999942
  0
LINE
  5
22D
100
AcDbEntity
  8
transparente
  6
ByLayer
 62
  256
370
   -1
100
AcDbLine
 10
1.247960000096811
 20
19.50071999999942
 11
1.247960000096811
 21
-1.500000000000578
  0
LINE
  5
22E
100
AcDbEntity
  8
transparente
  6
ByLayer
 62
  256
370
   -1
100
AcDbLine
 10
1.247960000096811
 20
-1.500000000000578
 11
21.7483000000968
 21
-1.500000000000578
  0
LINE
  5
22F
100
AcDbEntity
  8
transparente
  6
ByLayer
 62
  256
370
   -1
100
AcDbLine
 10
21.7483000000968
 20
-1.500000000000578
 11
21.7483000000968
 21
1.499739999999421
  0
LINE
  5
230
100
AcDbEntity
  8
transparente
  6
ByLayer
 62
  256
370
   -1
100
AcDbLine
 10
21.7483000000968
 20
1.499739999999421
 11
32.74904000009681
 21
1.499739999999421
  0
LINE
  5
231
100
AcDbEntity
  8
transparente
  6
ByLayer
 62
  256
370
   -1
100
AcDbLine
 10
32.74904000009681
 20
1.499739999999421
 11
32.74904000009681
 21
-1.500000000000578
  0
LINE
  5
232
100
AcDbEntity
  8
transparente
  6
ByLayer
 62
  256
370
   -1
100
AcDbLine
 10
32.74904000009681
 20
-1.500000000000578
 11
43.74978000009679
 21
-1.500000000000578
  0
LINE
  5
233
100
AcDbEntity
  8
transparente
  6
ByLayer
 62
  256
370
   -1
100
AcDbLine
 10
43.74978000009679
 20
-1.500000000000578
 11
43.74978000009679
 21
1.499739999999421
  0
LINE
  5
234
100
AcDbEntity
  8
transparente
  6
ByLayer
 62
  256
370
   -1
100
AcDbLine
 10
43.74978000009679
 20
1.499739999999421
 11
54.74798000009679
 21
1.499739999999421
  0
LINE
  5
235
100
AcDbEntity
  8
transparente
  6
ByLayer
 62
  256
370
   -1
100
AcDbLine
 10
54.74798000009679
 20
1.499739999999421
 11
54.74798000009679
 21
-1.500000000000578
  0
LINE
  5
236
100
AcDbEntity
  8
transparente
  6
ByLayer
 62
  256
370
   -1
100
AcDbLine
 10
54.74798000009679
 20
-1.500000000000578
 11
65.7487200000968
 21
-1.500000000000578
  0
LINE
  5
237
100
AcDbEntity
  8
transparente
  6
ByLayer
 62
  256
370
   -1
100
AcDbLine
 10
65.7487200000968
 20
-1.500000000000578
 11
65.7487200000968
 21
1.499739999999421
  0
LINE
  5
238
100
AcDbEntity
  8
transparente
  6
ByLayer
 62
  256
370
   -1
100
AcDbLine
 10
65.7487200000968
 20
1.499739999999421
 11
76.7494600000968
 21
1.499739999999421
  0
LINE
  5
239
100
AcDbEntity
  8
transparente
  6
ByLayer
 62
  256
370
   -1
100
AcDbLine
 10
76.7494600000968
 20
1.499739999999421
 11
76.7494600000968
 21
-1.500000000000578
  0
LINE
  5
23A
100
AcDbEntity
  8
transparente
  6
ByLayer
 62
  256
370
   -1
100
AcDbLine
 10
76.7494600000968
 20
-1.500000000000578
 11
87.75020000009681
 21
-1.500000000000578
  0
LINE
  5
23B
100
AcDbEntity
  8
transparente
  6
ByLayer
 62
  256
370
   -1
100
AcDbLine
 10
87.75020000009681
 20
-1.500000000000578
 11
87.75020000009681
 21
1.499739999999421
  0
LINE
  5
23C
100
AcDbEntity
  8
transparente
  6
ByLayer
 62
  256
370
   -1
100
AcDbLine
 10
87.75020000009681
 20
1.499739999999421
 11
98.74840000009681
 21
1.499739999999421
  0
LINE
  5
23D
100
AcDbEntity
  8
transparente
  6
ByLayer
 62
  256
370
   -1
100
AcDbLine
 10
98.74840000009681
 20
1.499739999999421
 11
98.74840000009681
 21
-1.500000000000578
  0
LINE
  5
23E
100
AcDbEntity
  8
transparente
  6
ByLayer
 62
  256
370
   -1
100
AcDbLine
 10
98.74840000009681
 20
-1.500000000000578
 11
109.7491400000968
 21
-1.500000000000578
  0
LINE
  5
23F
100
AcDbEntity
  8
transparente
  6
ByLayer
 62
  256
370
   -1
100
AcDbLine
 10
109.7491400000968
 20
-1.500000000000578
 11
109.7491400000968
 21
1.499739999999421
  0
LINE
  5
240
100
AcDbEntity
  8
transparente
  6
ByLayer
 62
  256
370
   -1
100
AcDbLine
 10
109.7491400000968
 20
1.499739999999421
 11
120.7498800000968
 21
1.499739999999421
  0
LINE
  5
241
100
AcDbEntity
  8
transparente
  6
ByLayer
 62
  256
370
   -1
100
AcDbLine
 10
120.7498800000968
 20
1.499739999999421
 11
120.7498800000968
 21
-1.500000000000578
  0
LINE
  5
242
100
AcDbEntity
  8
transparente
  6
ByLayer
 62
  256
370
   -1
100
AcDbLine
 10
120.7498800000968
 20
-1.500000000000578
 11
131.7480800000968
 21
-1.500000000000578
  0
LINE
  5
243
100
AcDbEntity
  8
transparente
  6
ByLayer
 62
  256
370
   -1
100
AcDbLine
 10
131.7480800000968
 20
-1.500000000000578
 11
131.7480800000968
 21
1.499739999999421
  0
LINE
  5
244
100
AcDbEntity
  8
transparente
  6
ByLayer
 62
  256
370
   -1
100
AcDbLine
 10
131.7480800000968
 20
1.499739999999421
 11
142.7488200000968
 21
1.499739999999421
  0
LINE
  5
245
100
AcDbEntity
  8
transparente
  6
ByLayer
 62
  256
370
   -1
100
AcDbLine
 10
142.7488200000968
 20
1.499739999999421
 11
142.7488200000968
 21
-1.500000000000578
  0
LINE
  5
246
100
AcDbEntity
  8
transparente
  6
ByLayer
 62
  256
370
   -1
100
AcDbLine
 10
142.7488200000968
 20
-1.500000000000578
 11
153.7495600000968
 21
-1.500000000000578
  0
LINE
  5
247
100
AcDbEntity
  8
transparente
  6
ByLayer
 62
  256
370
   -1
100
AcDbLine
 10
153.7495600000968
 20
-1.500000000000578
 11
153.7495600000968
 21
1.499739999999421
  0
LINE
  5
248
100
AcDbEntity
  8
transparente
  6
ByLayer
 62
  256
370
   -1
100
AcDbLine
 10
153.7495600000968
 20
1.499739999999421
 11
164.7477600000968
 21
1.499739999999421
  0
LINE
  5
249
100
AcDbEntity
  8
transparente
  6
ByLayer
 62
  256
370
   -1
100
AcDbLine
 10
164.7477600000968
 20
1.499739999999421
 11
164.7477600000968
 21
-1.500000000000578
  0
LINE
  5
24A
100
AcDbEntity
  8
transparente
  6
ByLayer
 62
  256
370
   -1
100
AcDbLine
 10
164.7477600000968
 20
-1.500000000000578
 11
175.7485000000968
 21
-1.500000000000578
  0
LINE
  5
24B
100
AcDbEntity
  8
transparente
  6
ByLayer
 62
  256
370
   -1
100
AcDbLine
 10
175.7485000000968
 20
-1.500000000000578
 11
175.7485000000968
 21
1.499739999999421
  0
LINE
  5
24C
100
AcDbEntity
  8
transparente
  6
ByLayer
 62
  256
370
   -1
100
AcDbLine
 10
175.7485000000968
 20
1.499739999999421
 11
186.7492400000968
 21
1.499739999999421
  0
LINE
  5
24D
100
AcDbEntity
  8
transparente
  6
ByLayer
 62
  256
370
   -1
100
AcDbLine
 10
186.7492400000968
 20
1.499739999999421
 11
186.7492400000968
 21
-1.500000000000578
  0
LINE
  5
24E
100
AcDbEntity
  8
transparente
  6
ByLayer
 62
  256
370
   -1
100
AcDbLine
 10
186.7492400000968
 20
-1.500000000000578
 11
197.7499800000968
 21
-1.500000000000578
  0
LINE
  5
24F
100
AcDbEntity
  8
transparente
  6
ByLayer
 62
  256
370
   -1
100
AcDbLine
 10
197.7499800000968
 20
-1.500000000000578
 11
197.7499800000968
 21
1.499739999999421
  0
LINE
  5
250
100
AcDbEntity
  8
transparente
  6
ByLayer
 62
  256
370
   -1
100
AcDbLine
 10
197.7499800000968
 20
1.499739999999421
 11
208.7481800000968
 21
1.499739999999421
  0
LINE
  5
251
100
AcDbEntity
  8
transparente
  6
ByLayer
 62
  256
370
   -1
100
AcDbLine
 10
208.7481800000968
 20
1.499739999999421
 11
208.7481800000968
 21
-1.500000000000578
  0
LINE
  5
252
100
AcDbEntity
  8
transparente
  6
ByLayer
 62
  256
370
   -1
100
AcDbLine
 10
208.7481800000968
 20
-1.500000000000578
 11
219.7489200000968
 21
-1.500000000000578
  0
LINE
  5
253
100
AcDbEntity
  8
transparente
  6
ByLayer
 62
  256
370
   -1
100
AcDbLine
 10
219.7489200000968
 20
-1.500000000000578
 11
219.7489200000968
 21
1.499739999999421
  0
LINE
  5
254
100
AcDbEntity
  8
transparente
  6
ByLayer
 62
  256
370
   -1
100
AcDbLine
 10
219.7489200000968
 20
1.499739999999421
 11
230.7496600000968
 21
1.499739999999421
  0
LINE
  5
255
100
AcDbEntity
  8
transparente
  6
ByLayer
 62
  256
370
   -1
100
AcDbLine
 10
230.7496600000968
 20
1.499739999999421
 11
230.7496600000968
 21
-1.500000000000578
  0
LINE
  5
256
100
AcDbEntity
  8
transparente
  6
ByLayer
 62
  256
370
   -1
100
AcDbLine
 10
230.7496600000968
 20
-1.500000000000578
 11
251.2500000000968
 21
-1.500000000000578
  0
LINE
  5
257
100
AcDbEntity
  8
transparente
  6
ByLayer
 62
  256
370
   -1
100
AcDbLine
 10
251.2500000000968
 20
-1.500000000000578
 11
251.2500000000968
 21
19.50071999999942
  0
LINE
  5
258
100
AcDbEntity
  8
transparente
  6
ByLayer
 62
  256
370
   -1
100
AcDbLine
 10
251.2500000000968
 20
19.50071999999942
 11
248.2477200000968
 21
19.50071999999942
  0
LINE
  5
259
100
AcDbEntity
  8
transparente
  6
ByLayer
 62
  256
370
   -1
100
AcDbLine
 10
248.2477200000968
 20
19.50071999999942
 11
248.2477200000968
 21
30.49891999999942
  0
LINE
  5
25A
100
AcDbEntity
  8
transparente
  6
ByLayer
 62
  256
370
   -1
100
AcDbLine
 10
248.2477200000968
 20
30.49891999999942
 11
251.2500000000968
 21
30.49891999999942
  0
LINE
  5
25B
100
AcDbEntity
  8
transparente
  6
ByLayer
 62
  256
370
   -1
100
AcDbLine
 10
1.247960000096811
 20
54.49963999999942
 11
1.247960000096811
 21
30.49891999999942
  0
LINE
  5
25C
100
AcDbEntity
  8
transparente
  6
ByLayer
 62
  256
370
   -1
100
AcDbLine
 10
251.2500000000968
 20
30.49891999999942
 11
251.2500000000968
 21
54.49963999999942
  0
ARC
  5
25D
100
AcDbEntity
  8
transparente
  6
ByLayer
 62
  256
370
   -1
100
AcDbCircle
 10
126.2489800000968
 20
54.49963999999942
 40
7.5
100
AcDbArc
 50
180
 51
0
  0
LINE
  5
25E
100
AcDbEntity
  8
transparente
  6
ByLayer
 62
  256
370
   -1
100
AcDbLine
 10
251.2500000000968
 20
54.49963999999942
 11
133.7489800000969
 21
54.49963999999942
  0
LINE
  5
25F
100
AcDbEntity
  8
transparente
  6
ByLayer
 62
  256
370
   -1
100
AcDbLine
 10
118.7489800000968
 20
54.49963999999942
 11
1.247960000096924
 21
54.49963999999942
  0
CIRCLE
  5
260
100
AcDbEntity
  8
transparente
  6
ByLayer
 62
  256
370
   -1
100
AcDbCircle
 10
14.32312601830062
 20
391.6527799900598
 40
3
  0
LINE
  5
261
100
AcDbEntity
  8
transparente
  6
ByLayer
 62
  256
370
   -1
100
AcDbLine
 10
24.92972773609892
 20
387.2593817078579
 11
9.92972773609892
 21
402.2593817078579
  0
LINE
  5
262
100
AcDbEntity
  8
transparente
  6
ByLayer
 62
  256
370
   -1
100
AcDbLine
 10
9.92972773609892
 20
402.2593817078579
 11
9.92972773609892
 21
387.2593817078579
  0
LINE
  5
263
100
AcDbEntity
  8
transparente
  6
ByLayer
 62
  256
370
   -1
100
AcDbLine
 10
9.92972773609892
 20
387.2593817078579
 11
24.92972773609903
 21
387.2593817078579
  0
CIRCLE
  5
264
100
AcDbEntity
  8
transparente
  6
ByLayer
 62
  256
370
   -1
100
AcDbCircle
 10
34.50539434691688
 20
391.5081816656835
 40
3
  0
LINE
  5
265
100
AcDbEntity
  8
transparente
  6
ByLayer
 62
  256
370
   -1
100
AcDbLine
 10
45.11199606471518
 20
387.1147833834817
 11
30.11199606471518
 21
402.1147833834816
  0
LINE
  5
266
100
AcDbEntity
  8
transparente
  6
ByLayer
 62
  256
370
   -1
100
AcDbLine
 10
30.11199606471518
 20
402.1147833834816
 11
30.11199606471518
 21
387.1147833834817
  0
LINE
  5
267
100
AcDbEntity
  8
transparente
  6
ByLayer
 62
  256
370
   -1
100
AcDbLine
 10
30.11199606471518
 20
387.1147833834817
 11
45.11199606471529
 21
387.1147833834817
  0
CIRCLE
  5
268
100
AcDbEntity
  8
transparente
  6
ByLayer
 62
  256
370
   -1
100
AcDbCircle
 10
78.79052350777624
 20
394.3825127884315
 40
3
  0
LINE
  5
269
100
AcDbEntity
  8
transparente
  6
ByLayer
 62
  256
370
   -1
100
AcDbLine
 10
74.39712522557454
 20
404.9891145062297
 11
74.39712522557454
 21
386.9891145062297
  0
LINE
  5
26A
100
AcDbEntity
  8
transparente
  6
ByLayer
 62
  256
370
   -1
100
AcDbLine
 10
92.39712522557454
 20
386.9891145062297
 11
74.39712522557454
 21
404.9891145062297
  0
LINE
  5
26B
100
AcDbEntity
  8
transparente
  6
ByLayer
 62
  256
370
   -1
100
AcDbLine
 10
74.39712522557454
 20
386.9891145062297
 11
92.39712522557454
 21
386.9891145062297
  0
CIRCLE
  5
26C
100
AcDbEntity
  8
transparente
  6
ByLayer
 62
  256
370
   -1
100
AcDbCircle
 10
56.39748199179962
 20
394.3543716276405
 40
3
  0
LINE
  5
26D
100
AcDbEntity
  8
transparente
  6
ByLayer
 62
  256
370
   -1
100
AcDbLine
 10
52.00408370959791
 20
404.9609733454388
 11
52.00408370959791
 21
386.9609733454388
  0
LINE
  5
26E
100
AcDbEntity
  8
transparente
  6
ByLayer
 62
  256
370
   -1
100
AcDbLine
 10
70.00408370959792
 20
386.9609733454388
 11
52.00408370959791
 21
404.9609733454388
  0
LINE
  5
26F
100
AcDbEntity
  8
transparente
  6
ByLayer
 62
  256
370
   -1
100
AcDbLine
 10
52.00408370959791
 20
386.9609733454388
 11
70.00408370959792
 21
386.9609733454388
  0
CIRCLE
  5
270
100
AcDbEntity
  8
transparente
  6
ByLayer
 62
  256
370
   -1
100
AcDbCircle
 10
531.4691285861309
 20
432.4717021153759
 40
3
  0
CIRCLE
  5
271
100
AcDbEntity
  8
transparente
  6
ByLayer
 62
  256
370
   -1
100
AcDbCircle
 10
296.2584451505342
 20
432.471702115376
 40
3
  0
LINE
  5
272
100
AcDbEntity
  8
transparente
  6
ByLayer
 62
  256
370
   -1
100
AcDbLine
 10
538.8648068683319
 20
439.8648403975776
 11
288.8648068683323
 21
439.8648403975776
  0
LINE
  5
273
100
AcDbEntity
  8
transparente
  6
ByLayer
 62
  256
370
   -1
100
AcDbLine
 10
288.8648068683323
 20
439.8648403975776
 11
288.8648068683323
 21
121.8648403975777
  0
CIRCLE
  5
274
100
AcDbEntity
  8
transparente
  6
ByLayer
 62
  256
370
   -1
100
AcDbCircle
 10
296.2584451505341
 20
129.2578586797794
 40
3
  0
LINE
  5
275
100
AcDbEntity
  8
transparente
  6
ByLayer
 62
  256
370
   -1
100
AcDbLine
 10
538.8648068683319
 20
121.8648403975777
 11
538.8648068683319
 21
439.8648403975776
  0
CIRCLE
  5
276
100
AcDbEntity
  8
transparente
  6
ByLayer
 62
  256
370
   -1
100
AcDbCircle
 10
531.4711685861303
 20
129.2578586797794
 40
3
  0
LINE
  5
277
100
AcDbEntity
  8
transparente
  6
ByLayer
 62
  256
370
   -1
100
AcDbLine
 10
288.8648068683323
 20
121.8648403975777
 11
538.8648068683319
 21
121.8648403975777
  0
ENDSEC
  0
SECTION
  2
OBJECTS
  0
DICTIONARY
  5
C
330
0
100
AcDbDictionary
281
    1
  3
ACAD_GROUP
350
D
  0
DICTIONARY
  5
D
330
C
100
AcDbDictionary
281
    1
  0
PLOTSETTINGS
  5
278
100
AcDbPlotSettings
  6
1x1
 40
0
 41
0
 42
0
 43
0
  0
ENDSEC
  0
EOF
